{"glyphs":{"0":{"ha":848,"x_min":54,"x_max":793,"o":"m 620 47 q 578 16 620 47 q 424 -14 536 -14 q 228 47 311 -14 q 99 220 144 108 q 54 483 54 333 q 99 745 54 633 q 228 919 144 858 q 424 980 311 980 q 620 919 536 980 q 749 745 704 858 q 793 483 793 633 q 749 220 793 333 q 620 47 704 108 m 618 831 q 583 896 618 831 q 424 961 547 961 q 229 831 301 961 q 157 483 157 701 q 229 135 157 264 q 424 5 301 5 q 618 135 547 5 q 690 483 690 264 q 618 831 690 701 z "},"1":{"ha":287,"x_min":49,"x_max":223,"o":"m 52 879 q 51 880 52 879 q 49 886 49 882 q 51 892 49 890 q 157 957 132 942 q 194 965 180 970 q 216 944 209 960 q 223 904 223 928 l 223 0 l 57 0 q 49 8 49 0 q 56 16 49 16 q 99 35 78 16 q 120 96 120 54 l 120 731 q 113 871 120 848 q 79 888 105 899 q 60 878 71 885 q 52 879 56 876 z "},"2":{"ha":780,"x_min":45,"x_max":725,"o":"m 170 928 q 412 980 257 980 q 517 964 466 980 q 610 919 568 949 q 678 842 652 890 q 704 736 704 795 q 684 626 704 680 q 631 529 664 572 q 552 443 597 486 q 459 366 507 400 q 358 296 411 332 q 260 230 306 260 q 173 167 215 201 q 106 103 132 133 l 540 103 q 661 143 612 103 q 709 233 709 184 q 717 239 709 239 q 725 231 725 239 l 725 0 l 45 0 q 75 97 45 48 q 155 189 106 146 q 263 278 204 233 q 382 374 323 324 q 491 477 441 424 q 570 597 540 530 q 601 736 601 665 q 566 860 601 807 q 480 937 531 912 q 374 961 430 961 q 264 930 317 961 q 177 853 212 899 q 121 754 142 807 q 100 656 100 702 q 92 650 100 650 q 84 658 84 650 l 84 945 q 92 954 84 954 q 100 946 100 954 q 123 918 100 922 q 170 928 146 913 z "},"3":{"ha":777,"x_min":60,"x_max":730,"o":"m 431 587 q 566 546 507 575 q 660 477 625 517 q 712 392 695 437 q 730 298 730 347 q 710 183 730 236 q 659 95 691 131 q 584 34 626 60 q 497 -3 542 9 q 407 -14 452 -14 q 147 39 243 -14 q 100 49 124 54 q 76 20 76 44 q 68 12 76 12 q 60 20 60 12 l 60 338 q 68 347 60 347 q 76 339 76 347 q 88 263 76 306 q 125 175 100 220 q 183 92 150 130 q 266 29 217 54 q 369 5 315 5 q 550 76 473 5 q 627 264 627 148 q 607 375 627 320 q 549 475 587 429 q 453 548 512 520 q 321 576 393 576 l 321 595 q 459 645 410 595 q 509 778 509 694 q 461 912 509 863 q 324 961 412 961 q 221 933 269 961 q 142 860 173 905 q 94 762 111 815 q 76 656 76 709 q 68 650 76 650 q 60 658 60 650 l 60 945 q 68 954 60 954 q 76 946 76 954 q 109 917 76 917 q 145 932 117 917 q 221 964 174 948 q 324 980 269 980 q 536 925 459 980 q 612 778 612 871 q 565 656 612 706 q 431 587 517 607 z "},"4":{"ha":757,"x_min":69,"x_max":706,"o":"m 507 96 l 507 239 l 69 239 l 69 258 l 591 966 l 610 966 l 608 964 l 610 966 l 610 342 q 671 363 652 342 q 690 406 690 385 q 699 414 690 414 q 706 406 706 414 l 706 249 q 696 239 706 239 l 610 239 l 610 96 q 631 35 610 54 q 674 16 652 16 q 682 8 682 16 q 673 0 682 0 l 610 0 l 507 0 l 444 0 q 435 8 435 0 q 443 16 435 16 q 486 35 465 16 q 507 96 507 54 m 151 342 l 507 342 l 507 826 l 151 342 z "},"5":{"ha":774,"x_min":53,"x_max":723,"o":"m 723 336 q 702 208 723 267 q 648 109 682 149 q 572 40 614 68 q 485 -1 529 12 q 400 -14 441 -14 q 140 39 236 -14 q 93 49 117 54 q 68 20 68 44 q 61 12 68 12 q 53 20 53 12 l 53 338 q 61 347 53 347 q 68 339 68 347 q 88 215 68 275 q 144 109 108 156 q 237 33 180 61 q 362 5 294 5 q 458 25 412 5 q 541 82 505 45 q 598 176 576 119 q 620 301 620 233 q 611 386 620 343 q 582 468 602 428 q 533 540 562 508 q 463 592 505 572 q 372 617 421 612 q 258 603 323 621 q 121 543 193 585 l 105 555 l 190 966 l 630 966 l 630 734 q 622 726 630 726 q 614 734 614 726 q 566 823 614 783 q 445 863 517 863 l 188 863 l 126 564 q 287 638 208 615 q 430 656 366 661 q 550 626 494 651 q 643 557 605 600 q 702 457 681 514 q 723 336 723 400 z "},"6":{"ha":847,"x_min":54,"x_max":793,"o":"m 693 79 q 643 32 693 79 q 424 -14 593 -14 q 154 97 254 -14 q 54 390 54 208 q 83 663 54 547 q 166 847 113 779 q 288 947 219 915 q 444 980 357 980 q 548 967 494 980 q 640 935 601 954 q 703 897 678 917 q 728 863 728 877 l 728 665 q 721 657 728 657 q 713 664 713 657 q 696 764 713 713 q 648 860 679 815 q 566 932 617 904 q 454 961 515 961 q 379 946 416 961 q 301 891 341 930 q 232 793 262 852 q 181 639 201 734 q 157 425 160 544 q 268 594 184 534 q 460 654 351 654 q 608 629 543 654 q 713 559 673 604 q 773 456 753 514 q 793 328 793 397 q 693 79 793 172 m 159 328 l 159 329 q 243 93 172 182 q 424 5 314 5 q 618 93 547 5 q 690 328 690 180 q 674 432 690 382 q 626 520 657 481 q 546 582 595 559 q 437 605 497 605 q 238 525 316 605 q 159 328 159 446 z "},"7":{"ha":748,"x_min":46,"x_max":678,"o":"m 54 726 q 46 734 46 726 l 46 935 q 55 957 46 948 q 77 966 64 966 l 678 966 q 656 862 678 916 q 598 755 634 808 q 518 648 562 703 q 427 530 473 592 q 341 402 381 467 q 271 258 301 338 q 231 96 241 178 q 242 34 228 51 q 291 16 256 16 q 298 8 298 16 q 290 0 298 0 l 60 0 q 52 8 52 0 q 60 16 52 16 q 109 33 94 16 q 132 94 124 49 l 132 96 l 132 96 q 171 237 143 167 q 236 366 199 307 q 317 483 274 426 q 407 591 361 539 q 494 688 454 643 q 572 780 535 734 q 629 863 608 827 l 231 863 q 143 852 179 863 q 91 821 108 841 q 68 781 75 801 q 62 734 62 760 q 54 726 62 726 z "},"8":{"ha":840,"x_min":50,"x_max":789,"o":"m 789 290 q 689 68 789 151 q 420 -14 589 -14 q 150 68 250 -14 q 50 290 50 151 q 120 484 50 406 q 315 586 191 562 q 175 655 225 605 q 124 778 124 705 q 204 925 124 870 q 420 980 284 980 q 635 925 555 980 q 715 778 715 870 q 665 655 715 705 q 524 586 614 605 q 719 484 648 562 q 789 290 789 406 m 279 911 q 253 886 279 911 q 227 778 227 861 q 279 645 227 694 q 420 595 331 595 q 561 645 509 595 q 612 778 612 694 q 561 911 612 861 q 420 961 509 961 q 279 911 331 961 m 153 290 q 225 82 153 160 q 420 5 297 5 q 614 82 543 5 q 686 290 686 159 q 614 499 686 421 q 420 576 543 576 l 420 576 q 225 499 297 576 q 153 290 153 421 z "},"9":{"ha":847,"x_min":53,"x_max":792,"o":"m 792 576 q 773 350 792 450 q 719 182 753 250 q 635 70 685 115 q 528 6 586 26 q 401 -14 470 -14 q 298 -1 351 -14 q 206 31 245 12 q 142 69 168 49 q 117 103 117 89 l 117 301 q 125 309 117 309 q 134 302 134 309 q 150 202 134 253 q 198 106 167 151 q 279 33 229 62 q 391 5 330 5 q 467 20 429 5 q 544 74 505 35 q 614 172 584 113 q 665 327 644 231 q 688 541 686 422 q 578 372 661 432 q 386 312 496 312 q 238 337 303 312 q 134 407 174 362 q 73 510 94 452 q 53 637 53 568 q 153 887 53 793 q 422 980 253 980 q 692 869 592 980 q 792 576 792 758 m 686 637 l 686 637 q 603 872 673 784 q 422 961 532 961 q 228 873 300 961 q 155 637 155 785 q 172 534 155 583 q 220 446 189 484 q 300 384 251 407 q 408 361 349 361 q 608 440 530 361 q 686 637 686 520 z "},"\u0000":{"ha":0,"x_min":0,"x_max":0,"o":""},"\n":{"ha":0,"x_min":0,"x_max":0,"o":""},"\r":{"ha":0,"x_min":0,"x_max":0,"o":""}," ":{"ha":439,"x_min":0,"x_max":0,"o":""},"!":{"ha":226,"x_min":61,"x_max":164,"o":"m 149 1 q 142 -7 149 1 q 113 -14 134 -14 q 76 1 91 -14 q 61 37 61 16 q 76 74 61 58 q 113 89 91 89 q 149 74 134 89 q 164 37 164 58 q 149 1 164 16 m 122 118 q 113 109 122 109 q 103 118 103 109 q 92 283 102 187 q 71 504 81 380 q 61 767 61 627 l 61 914 q 76 951 61 936 q 113 966 91 966 q 149 951 134 966 q 164 914 164 936 l 164 767 q 154 504 164 627 q 133 283 144 380 q 122 118 123 187 z "},"\"":{"ha":301,"x_min":37,"x_max":263,"o":"m 53 965 q 60 972 53 965 q 89 980 68 980 q 125 965 110 980 q 140 928 140 949 q 72 823 140 859 l 70 823 q 65 826 66 823 q 66 831 64 829 q 98 874 108 865 q 89 877 96 877 q 53 892 68 877 q 37 928 37 907 q 53 965 37 949 m 175 965 q 182 972 175 965 q 212 980 190 980 q 248 965 233 980 q 263 928 263 949 q 195 823 263 859 l 193 823 q 188 826 189 823 q 189 831 186 829 q 221 874 231 865 q 212 877 218 877 q 175 892 190 877 q 160 928 160 907 q 175 965 160 949 z "},"“":{"ha":301,"x_min":37,"x_max":263,"o":"m 53 965 q 60 972 53 965 q 89 980 68 980 q 125 965 110 980 q 140 928 140 949 q 72 823 140 859 l 70 823 q 65 826 66 823 q 66 831 64 829 q 98 874 108 865 q 89 877 96 877 q 53 892 68 877 q 37 928 37 907 q 53 965 37 949 m 175 965 q 182 972 175 965 q 212 980 190 980 q 248 965 233 980 q 263 928 263 949 q 195 823 263 859 l 193 823 q 188 826 189 823 q 189 831 186 829 q 221 874 231 865 q 212 877 218 877 q 175 892 190 877 q 160 928 160 907 q 175 965 160 949 z "},"”":{"ha":301,"x_min":37,"x_max":263,"o":"m 53 965 q 60 972 53 965 q 89 980 68 980 q 125 965 110 980 q 140 928 140 949 q 72 823 140 859 l 70 823 q 65 826 66 823 q 66 831 64 829 q 98 874 108 865 q 89 877 96 877 q 53 892 68 877 q 37 928 37 907 q 53 965 37 949 m 175 965 q 182 972 175 965 q 212 980 190 980 q 248 965 233 980 q 263 928 263 949 q 195 823 263 859 l 193 823 q 188 826 189 823 q 189 831 186 829 q 221 874 231 865 q 212 877 218 877 q 175 892 190 877 q 160 928 160 907 q 175 965 160 949 z "},"#":{"ha":622,"x_min":43,"x_max":578,"o":"m 568 594 q 578 584 578 594 q 568 574 578 574 l 486 574 l 476 391 l 543 391 q 553 382 553 391 q 543 372 553 372 l 475 372 l 463 150 q 453 141 463 141 l 370 141 q 360 151 360 141 l 372 372 l 248 372 l 235 150 q 226 141 235 141 l 142 141 q 135 144 138 141 q 132 151 132 147 l 144 372 l 53 372 q 46 375 49 372 q 43 382 43 378 q 53 391 43 391 l 146 391 l 156 574 l 78 574 q 68 584 68 574 q 71 591 68 588 q 78 594 74 594 l 157 594 l 170 816 q 179 825 170 825 l 262 825 q 272 814 272 825 l 260 594 l 385 594 l 397 816 q 406 825 397 825 l 490 825 q 497 822 494 825 q 500 814 500 819 l 487 594 l 568 594 m 373 391 l 383 574 l 259 574 l 249 391 l 373 391 z "},"$":{"ha":786,"x_min":57,"x_max":736,"o":"m 406 560 q 601 460 543 498 q 736 256 736 370 q 688 119 736 181 q 564 23 639 57 q 406 -14 489 -11 l 406 -87 l 387 -87 l 387 -14 q 73 53 197 -13 q 57 82 57 62 l 57 297 q 65 305 57 305 q 73 298 73 305 q 83 239 73 273 q 118 163 94 204 q 176 87 142 121 q 266 29 211 53 q 387 5 321 5 l 387 447 q 371 455 382 450 q 355 462 360 460 q 178 555 229 521 q 57 742 57 637 q 100 866 57 811 q 210 951 142 922 q 355 980 278 980 q 387 979 377 980 l 387 1053 l 406 1053 l 406 979 q 646 913 538 970 q 662 884 662 904 l 662 669 q 654 661 662 661 q 646 667 646 661 q 640 723 646 692 q 618 792 635 753 q 577 864 602 831 q 508 923 552 897 q 406 958 463 949 l 406 560 m 387 569 l 387 960 q 355 961 367 961 q 262 940 306 961 q 189 878 218 919 q 160 784 160 836 q 174 725 160 753 q 208 677 189 697 q 262 635 228 656 q 321 600 296 613 q 387 569 347 587 m 406 5 q 569 67 504 10 q 634 214 634 125 q 621 274 634 245 q 589 324 608 303 q 537 367 570 345 q 477 403 505 389 q 406 438 449 418 l 406 5 z "},"%":{"ha":740,"x_min":33,"x_max":705,"o":"m 515 980 l 534 980 l 224 -7 q 216 -14 222 -14 q 208 -11 211 -14 q 207 -2 205 -7 l 515 980 m 534 374 q 656 320 607 374 q 705 189 705 266 q 656 57 705 111 q 534 3 607 3 q 414 57 463 3 q 365 189 365 111 q 414 320 365 266 q 534 374 463 374 m 487 71 q 496 47 487 71 q 534 22 506 22 q 582 71 563 22 q 602 189 602 119 q 582 306 602 258 q 534 354 563 354 q 487 306 506 354 q 467 189 467 258 q 487 71 467 119 m 324 912 q 349 885 324 912 q 373 781 373 858 q 324 649 373 703 q 203 595 275 595 q 82 649 131 595 q 33 781 33 703 q 82 912 33 858 q 203 966 131 966 q 324 912 275 966 m 156 663 q 165 639 156 663 q 203 614 175 614 q 251 663 232 614 q 271 781 271 711 q 251 898 271 850 q 203 947 232 947 q 156 898 175 947 q 136 781 136 850 q 156 663 136 711 z "},"&":{"ha":1083,"x_min":39,"x_max":1014,"o":"m 1012 19 l 1014 0 q 714 102 903 -8 q 677 67 693 80 q 435 -14 576 -14 q 45 224 71 -14 q 54 314 39 271 q 92 389 68 358 q 151 448 116 420 q 214 493 186 477 q 273 524 242 509 q 186 770 198 648 q 194 851 182 815 q 228 909 206 888 q 280 947 250 931 q 337 969 310 962 q 391 979 363 976 q 436 980 412 982 q 486 974 461 978 q 536 958 511 970 q 580 928 560 945 q 613 881 600 911 q 631 813 627 851 q 628 749 635 779 q 602 695 621 720 q 561 650 583 670 q 506 611 540 631 q 444 578 472 592 q 376 548 416 565 q 520 352 435 451 q 696 176 605 254 q 733 328 733 248 q 687 466 733 406 q 570 553 641 525 q 567 558 568 554 q 570 566 567 563 q 583 566 575 570 q 660 536 608 555 q 745 503 711 517 q 792 474 779 488 q 818 422 810 455 q 823 360 825 389 q 814 302 821 331 q 743 138 794 210 q 1012 19 909 12 m 393 959 q 311 908 342 954 q 288 779 280 863 q 366 566 298 684 q 495 677 454 622 q 529 803 536 733 q 481 925 520 886 q 393 959 443 964 m 435 5 q 558 38 494 5 q 668 131 623 72 q 451 302 553 205 q 281 509 349 400 q 183 396 229 477 q 146 235 138 315 q 175 134 153 177 q 227 67 198 91 q 295 28 256 43 q 366 9 334 14 q 435 5 399 5 z "},"'":{"ha":179,"x_min":37,"x_max":140,"o":"m 53 965 q 60 972 53 965 q 89 980 68 980 q 125 965 110 980 q 140 928 140 949 q 72 823 140 859 l 70 823 q 65 826 66 823 q 66 831 64 829 q 98 874 108 865 q 89 877 96 877 q 53 892 68 877 q 37 928 37 907 q 53 965 37 949 z "},"‘":{"ha":179,"x_min":37,"x_max":140,"o":"m 53 965 q 60 972 53 965 q 89 980 68 980 q 125 965 110 980 q 140 928 140 949 q 72 823 140 859 l 70 823 q 65 826 66 823 q 66 831 64 829 q 98 874 108 865 q 89 877 96 877 q 53 892 68 877 q 37 928 37 907 q 53 965 37 949 z "},"’":{"ha":179,"x_min":37,"x_max":140,"o":"m 53 965 q 60 972 53 965 q 89 980 68 980 q 125 965 110 980 q 140 928 140 949 q 72 823 140 859 l 70 823 q 65 826 66 823 q 66 831 64 829 q 98 874 108 865 q 89 877 96 877 q 53 892 68 877 q 37 928 37 907 q 53 965 37 949 z "},"(":{"ha":436,"x_min":57,"x_max":366,"o":"m 366 961 q 293 946 325 961 q 239 901 262 931 q 201 831 217 871 q 177 735 186 791 q 164 620 168 680 q 160 483 160 559 q 164 346 160 407 q 177 230 168 286 q 201 135 186 175 q 239 64 217 94 q 293 20 262 35 q 366 5 325 5 l 366 -14 q 222 20 282 -14 q 126 122 161 55 q 74 277 90 189 q 57 483 57 366 q 74 688 57 600 q 126 844 90 777 q 222 945 161 911 q 366 980 282 980 l 366 961 z "},")":{"ha":436,"x_min":69,"x_max":378,"o":"m 69 980 q 213 945 153 980 q 309 844 273 911 q 362 688 345 777 q 378 483 378 600 q 362 277 378 366 q 309 122 345 189 q 213 20 273 55 q 69 -14 153 -14 l 69 5 q 154 27 117 5 q 213 89 190 50 q 250 190 236 128 q 270 321 264 251 q 275 483 275 391 q 270 645 275 574 q 250 776 264 715 q 213 877 236 838 q 154 939 190 916 q 69 961 117 961 l 69 980 z "},"*":{"ha":404,"x_min":40,"x_max":363,"o":"m 354 828 q 363 819 363 828 q 354 808 363 808 l 225 808 l 317 718 q 317 704 323 711 q 303 704 310 697 l 212 795 l 212 666 q 202 656 212 656 q 193 666 193 656 l 193 795 l 101 704 q 87 704 94 697 q 87 718 81 711 l 179 808 l 50 808 q 43 811 46 808 q 40 819 40 814 q 50 828 40 828 l 179 828 l 87 919 q 87 932 81 926 q 101 932 94 939 l 193 842 l 193 970 q 202 980 193 980 q 212 970 212 980 l 212 842 l 303 932 q 317 932 310 939 q 317 919 323 926 l 225 828 l 354 828 z "},"+":{"ha":406,"x_min":40,"x_max":364,"o":"m 357 518 q 364 511 364 518 l 364 456 q 357 448 364 448 l 237 448 l 237 328 q 230 321 237 321 l 175 321 q 168 328 168 321 l 168 448 l 47 448 q 40 456 40 448 l 40 511 q 47 518 40 518 l 168 518 l 168 637 q 175 645 168 645 l 230 645 q 237 637 237 645 l 237 518 l 357 518 z "},",":{"ha":174,"x_min":35,"x_max":138,"o":"m 50 74 q 57 81 50 74 q 86 89 65 89 q 122 74 107 89 q 138 37 138 58 q 69 -68 138 -33 q 67 -68 68 -68 q 62 -65 64 -68 q 64 -60 61 -62 q 96 -17 105 -26 q 86 -14 93 -14 q 50 1 65 -14 q 35 37 35 16 q 50 74 35 58 z "},"-":{"ha":389,"x_min":32,"x_max":356,"o":"m 349 518 q 356 511 356 518 l 356 456 q 349 448 356 448 l 39 448 q 32 456 32 448 l 32 511 q 39 518 32 518 l 349 518 z "},".":{"ha":174,"x_min":35,"x_max":138,"o":"m 122 1 q 115 -7 122 1 q 86 -14 107 -14 q 50 1 65 -14 q 35 37 35 16 q 50 74 35 58 q 86 89 65 89 q 122 74 107 89 q 138 37 138 58 q 122 1 138 16 z "},"/":{"ha":600,"x_min":68,"x_max":532,"o":"m 522 966 q 530 962 527 966 q 530 954 532 958 l 137 5 q 129 0 135 0 l 79 0 q 71 4 74 0 q 70 12 68 7 l 463 960 q 471 966 465 966 l 522 966 z "},":":{"ha":187,"x_min":41,"x_max":144,"o":"m 129 474 q 122 467 129 474 q 93 459 114 459 q 57 474 72 459 q 41 511 41 490 q 57 547 41 532 q 93 562 72 562 q 129 547 114 562 q 144 511 144 532 q 129 474 144 490 m 57 266 q 64 273 57 266 q 93 281 72 281 q 129 266 114 281 q 144 229 144 251 q 130 193 144 208 q 93 178 115 178 q 56 193 71 178 q 41 229 41 208 q 57 266 41 251 z "},";":{"ha":193,"x_min":45,"x_max":147,"o":"m 132 474 q 124 467 132 474 q 96 459 117 459 q 60 474 75 459 q 45 511 45 489 q 60 547 45 532 q 96 562 75 562 q 132 547 117 562 q 147 511 147 532 q 132 474 147 490 m 60 266 q 67 273 60 266 q 96 281 75 281 q 132 266 117 281 q 147 229 147 251 q 79 125 147 160 q 77 124 78 124 q 72 127 73 124 q 74 133 71 131 q 106 176 114 165 q 96 178 103 178 q 60 193 75 178 q 45 229 45 208 q 60 266 45 251 z "},"<":{"ha":496,"x_min":36,"x_max":454,"o":"m 454 641 q 450 633 454 636 l 104 458 l 450 282 q 454 275 454 279 q 450 267 454 270 q 441 267 446 264 l 36 473 l 36 492 l 441 699 q 450 699 446 701 q 454 691 454 696 l 454 641 z "},"=":{"ha":402,"x_min":39,"x_max":363,"o":"m 355 581 q 363 574 363 581 l 363 519 q 355 511 363 511 l 46 511 q 39 519 39 511 l 39 574 q 46 581 39 581 l 355 581 m 355 454 q 363 447 363 454 l 363 392 q 355 385 363 385 l 46 385 q 39 392 39 385 l 39 447 q 46 454 39 454 l 355 454 z "},">":{"ha":496,"x_min":41,"x_max":460,"o":"m 54 699 l 460 492 l 460 473 l 54 267 q 46 267 50 264 q 41 275 41 270 l 41 325 q 46 333 41 331 l 391 508 l 46 684 q 41 691 41 686 q 46 699 41 696 q 54 699 50 701 z "},"?":{"ha":703,"x_min":40,"x_max":661,"o":"m 289 37 q 289 27 289 37 q 273 1 289 16 q 237 -15 258 -15 q 201 1 216 -15 q 186 37 186 16 q 201 73 186 58 q 237 88 216 88 q 273 73 258 88 q 289 37 289 58 m 369 980 q 577 901 494 980 q 661 688 661 823 q 638 578 661 627 q 578 498 615 530 q 498 438 542 467 q 410 381 454 410 q 329 317 366 351 q 270 229 292 282 q 247 109 247 176 q 244 102 247 105 q 237 100 241 100 l 237 100 q 227 109 227 100 q 245 242 227 184 q 293 339 264 301 q 357 408 322 376 q 427 467 392 439 q 492 524 463 494 q 539 597 521 553 q 557 695 557 640 q 504 885 557 810 q 370 961 450 961 q 261 941 312 961 q 173 888 210 921 q 110 815 136 856 q 70 734 83 775 q 56 656 56 693 q 48 650 56 650 q 40 658 40 650 l 40 817 q 126 928 40 877 q 369 980 214 980 z "},"@":{"ha":1094,"x_min":50,"x_max":1044,"o":"m 354 941 q 400 960 354 941 q 547 980 446 980 q 741 941 648 980 q 899 835 833 901 q 1005 676 966 768 q 1044 483 1044 584 q 1014 293 1044 381 q 935 155 983 205 q 834 106 886 106 q 715 140 760 105 q 670 240 671 176 l 669 252 q 597 193 644 217 q 487 170 551 170 q 362 200 421 170 q 264 281 304 231 q 203 398 224 331 q 187 534 182 465 q 289 769 199 677 q 500 852 379 862 q 671 774 616 842 q 696 806 678 793 q 734 818 713 818 l 769 818 l 772 241 q 834 125 774 125 q 924 174 880 125 q 997 306 968 222 q 1025 483 1025 390 q 987 668 1025 580 q 885 821 949 757 q 733 923 821 885 q 547 961 644 961 q 308 897 418 961 q 133 723 197 833 q 69 483 69 612 q 133 243 69 353 q 308 69 197 133 q 547 5 418 5 q 769 60 663 5 l 777 42 q 547 -14 670 -14 q 354 25 446 -14 q 195 131 262 64 q 90 290 129 197 q 50 483 50 382 q 90 676 50 584 q 195 835 129 768 q 354 941 262 901 m 500 186 q 602 214 557 186 q 669 277 648 241 l 667 747 q 607 804 644 781 q 527 831 570 827 q 369 749 437 838 q 290 526 301 660 q 308 360 282 438 q 385 234 334 281 q 500 186 437 186 z "},"A":{"ha":811,"x_min":-18,"x_max":826,"o":"m -9 0 q -15 3 -12 0 q -17 9 -18 5 q -8 16 -16 16 q 63 42 25 17 q 121 121 101 68 l 404 957 q 416 966 407 966 q 428 957 425 966 l 720 92 q 764 34 735 52 q 818 16 793 17 q 823 14 821 16 q 826 8 826 11 q 823 3 826 5 q 818 0 821 0 l 588 0 q 581 9 579 0 q 588 16 582 16 q 610 24 600 17 q 623 49 619 31 q 616 96 627 67 q 494 454 580 201 l 252 454 q 140 123 195 283 q 136 72 132 92 q 156 39 140 51 q 188 21 172 26 q 222 16 205 16 q 229 12 227 16 q 227 3 231 7 q 221 0 225 0 l -9 0 m 373 817 q 258 473 361 781 l 488 473 q 373 817 423 669 z "},"B":{"ha":737,"x_min":21,"x_max":715,"o":"m 92 96 l 92 869 q 71 931 92 911 q 28 950 50 950 q 21 958 21 950 q 29 966 21 966 l 92 966 q 198 973 119 966 q 353 980 277 980 q 484 961 427 980 q 574 909 541 943 q 625 834 608 876 q 642 741 642 791 q 591 597 642 661 q 443 513 540 533 q 641 428 566 495 q 715 254 715 360 q 618 54 715 122 q 353 -14 522 -14 q 198 -7 277 -14 q 92 0 119 0 l 29 0 q 21 8 21 0 q 28 16 21 16 q 71 35 50 16 q 92 96 92 54 m 195 953 l 195 522 l 337 522 q 431 540 391 522 q 494 590 471 558 q 528 660 517 622 q 539 741 539 698 q 527 823 539 785 q 490 893 515 862 q 425 943 466 924 q 330 961 384 961 q 195 953 277 961 m 195 503 l 195 14 q 330 5 283 5 q 542 70 471 5 q 612 254 612 136 q 544 435 612 370 q 338 503 475 500 l 195 503 z "},"C":{"ha":797,"x_min":28,"x_max":777,"o":"m 458 -14 q 297 20 374 -14 q 160 116 220 54 q 64 273 100 178 q 28 483 28 368 q 61 689 28 594 q 151 847 95 784 q 281 945 208 909 q 434 980 354 980 q 476 977 455 980 q 513 971 497 975 q 549 961 529 968 q 579 949 568 954 q 611 934 591 945 q 638 919 631 923 q 667 901 646 914 q 694 884 689 888 q 711 856 707 877 q 752 584 725 775 q 750 577 753 579 q 744 576 747 574 q 741 581 741 577 q 719 666 734 619 q 675 765 703 713 q 614 861 648 818 q 532 932 580 904 q 434 961 485 961 q 216 834 300 961 q 131 509 131 708 q 161 308 131 401 q 242 154 191 216 q 360 57 292 92 q 501 22 427 22 q 661 72 594 22 q 758 199 728 121 q 766 204 760 204 q 774 200 771 204 q 774 192 777 197 q 731 115 758 151 q 666 50 704 80 q 574 3 627 20 q 458 -14 520 -14 z "},"D":{"ha":808,"x_min":21,"x_max":778,"o":"m 92 96 l 92 869 q 71 931 92 911 q 28 950 50 950 q 21 958 21 950 q 29 966 21 966 l 92 966 q 198 973 119 966 q 353 980 277 980 q 533 943 452 980 q 667 839 614 905 q 749 682 720 773 q 778 483 778 591 q 749 284 778 375 q 667 126 720 193 q 533 23 614 60 q 353 -14 452 -14 q 198 -7 277 -14 q 92 0 119 0 l 29 0 q 21 8 21 0 q 28 16 21 16 q 71 35 50 16 q 92 96 92 54 m 195 953 l 195 14 q 330 5 283 5 q 485 42 418 5 q 594 145 553 79 q 655 297 635 212 q 675 483 675 382 q 655 669 675 584 q 594 820 635 754 q 485 924 553 886 q 330 961 418 961 q 195 953 277 961 z "},"E":{"ha":652,"x_min":20,"x_max":624,"o":"m 92 96 l 92 869 q 71 930 92 911 q 28 949 50 949 q 21 955 23 949 q 24 964 20 960 q 29 966 26 966 l 584 966 q 598 960 592 966 q 604 946 604 954 l 604 766 q 597 758 604 759 q 588 765 588 756 q 381 947 588 947 l 195 947 l 195 372 q 292 520 224 456 q 362 577 321 549 q 425 621 402 606 q 465 664 448 637 q 481 728 481 692 q 490 735 483 735 q 498 727 498 735 l 498 352 q 490 344 498 345 q 482 351 482 342 q 469 485 482 435 q 431 550 455 535 q 375 554 407 566 q 304 506 343 543 q 195 254 195 401 l 195 19 l 401 19 q 495 33 455 19 q 556 65 535 46 q 589 111 577 83 q 605 158 602 138 q 608 201 608 178 q 611 207 608 204 q 617 208 614 209 q 624 200 624 207 l 624 20 q 618 6 624 12 q 604 0 612 0 l 29 0 q 23 3 26 0 q 21 9 20 5 q 29 16 22 16 q 72 36 52 16 q 92 96 92 55 z "},"F":{"ha":614,"x_min":20,"x_max":604,"o":"m 92 96 l 92 869 q 71 930 92 911 q 28 949 50 949 q 21 955 23 949 q 24 964 20 960 q 29 966 26 966 l 584 966 q 598 960 592 966 q 604 946 604 954 l 604 766 q 597 758 604 759 q 588 765 588 756 q 381 947 588 947 l 195 947 l 195 372 q 292 520 224 456 q 362 577 321 549 q 425 621 402 606 q 465 664 448 637 q 481 728 481 692 q 490 735 483 735 q 498 727 498 735 l 498 352 q 490 344 498 345 q 482 351 482 342 q 469 485 482 435 q 431 550 455 535 q 375 554 407 566 q 304 506 343 543 q 195 254 195 401 l 195 95 q 216 36 195 55 q 258 16 237 16 q 267 9 265 16 q 259 0 268 0 l 29 0 q 23 3 26 0 q 21 9 20 5 q 29 16 22 16 q 72 36 52 16 q 92 96 92 55 z "},"G":{"ha":848,"x_min":29,"x_max":834,"o":"m 415 -14 q 254 25 327 -14 q 132 131 180 64 q 56 289 83 199 q 29 483 29 380 q 81 732 29 618 q 223 913 132 846 q 424 980 314 980 q 529 966 479 980 q 608 936 580 951 q 683 892 637 921 q 696 884 692 887 q 712 856 709 877 q 753 584 726 775 q 751 578 754 581 q 745 576 749 576 q 737 583 739 576 q 714 674 730 625 q 669 774 697 723 q 606 867 641 825 q 523 935 570 908 q 424 961 475 961 q 277 897 344 961 q 171 723 210 833 q 132 483 132 613 q 166 242 132 350 q 266 70 199 134 q 421 5 333 5 q 659 127 559 5 l 659 376 q 638 437 659 418 q 595 456 616 456 q 588 464 588 456 q 596 472 588 472 l 826 472 q 834 464 834 472 q 827 456 834 456 q 784 437 805 456 q 762 376 762 418 l 762 0 l 751 0 q 728 77 751 43 q 666 111 705 111 q 623 70 642 86 q 571 31 604 53 q 499 -3 538 9 q 415 -14 459 -14 z "},"H":{"ha":772,"x_min":21,"x_max":751,"o":"m 92 96 l 92 869 q 71 931 92 911 q 28 950 50 950 q 21 958 21 950 q 29 966 21 966 l 258 966 q 267 958 267 966 q 260 950 267 950 q 217 931 238 950 q 195 869 195 911 l 195 502 l 577 502 l 577 869 q 556 931 577 911 q 513 950 534 950 q 505 958 505 950 q 513 966 505 966 l 743 966 q 751 958 751 966 q 744 950 751 950 q 701 931 722 950 q 680 869 680 911 l 680 96 q 701 35 680 54 q 744 16 722 16 q 751 8 751 16 q 743 0 751 0 l 513 0 q 505 8 505 0 q 513 16 505 16 q 556 35 535 16 q 577 96 577 54 l 577 483 l 195 483 l 195 96 q 216 35 195 54 q 260 16 237 16 q 267 8 267 16 q 258 0 267 0 l 195 0 l 92 0 l 29 0 q 21 8 21 0 q 28 16 21 16 q 71 35 50 16 q 92 96 92 54 z "},"I":{"ha":286,"x_min":20,"x_max":265,"o":"m 91 96 l 91 869 q 70 931 91 911 q 26 950 48 950 q 20 958 20 950 q 28 966 20 966 l 257 966 q 265 958 265 966 q 258 950 265 950 q 215 931 237 950 q 194 869 194 911 l 194 96 q 215 35 194 54 q 258 16 236 16 q 265 8 265 16 q 257 0 265 0 l 28 0 q 20 8 20 0 q 26 16 20 16 q 70 35 49 16 q 91 96 91 54 z "},"J":{"ha":561,"x_min":8,"x_max":543,"o":"m 23 69 q 8 100 8 82 l 8 304 q 16 311 8 311 q 24 304 24 311 q 54 165 24 233 q 139 51 83 96 q 260 5 194 5 q 286 7 274 5 q 314 21 298 10 q 342 50 330 32 q 361 102 353 68 q 369 182 369 136 l 369 869 q 348 931 369 911 q 304 950 326 950 q 297 958 297 950 q 305 966 297 966 l 535 966 q 543 958 543 966 q 536 950 543 950 q 493 931 515 950 q 472 869 472 911 l 472 182 q 415 32 472 79 q 250 -14 358 -14 q 130 10 195 -14 q 23 69 65 34 z "},"K":{"ha":769,"x_min":20,"x_max":781,"o":"m 91 96 l 91 869 q 70 931 91 911 q 26 950 48 950 q 20 958 20 950 q 28 966 20 966 l 257 966 q 265 958 265 966 q 258 950 265 950 q 215 931 237 950 q 194 869 194 911 l 194 334 l 555 874 q 560 909 565 895 q 541 932 555 923 q 511 946 526 941 q 488 950 497 950 q 481 958 481 950 q 489 966 481 966 l 719 966 q 727 958 727 966 q 720 950 727 950 q 646 927 696 950 q 571 869 595 905 l 359 553 l 664 96 q 722 38 689 59 q 773 16 754 16 q 781 8 781 16 q 772 0 781 0 l 543 0 q 534 8 534 0 q 542 16 534 16 q 564 24 553 16 q 577 47 574 31 q 566 90 581 64 l 308 475 l 194 305 l 194 96 q 215 35 194 54 q 258 16 236 16 q 265 8 265 16 q 257 0 265 0 l 28 0 q 20 8 20 0 q 26 16 20 16 q 70 35 49 16 q 91 96 91 54 z "},"L":{"ha":541,"x_min":20,"x_max":540,"o":"m 92 96 l 92 869 q 71 931 92 911 q 28 950 50 950 q 21 955 23 950 q 23 963 20 959 q 29 966 25 966 l 258 966 q 264 963 262 966 q 267 957 267 960 q 258 949 265 949 q 216 930 236 949 q 195 869 195 911 l 195 19 l 317 19 q 394 32 359 19 q 453 65 430 45 q 493 110 476 85 q 516 158 509 135 q 524 201 524 181 q 532 208 524 210 q 540 200 540 207 l 540 14 q 535 4 540 8 q 525 0 531 0 l 29 0 q 23 3 26 0 q 21 9 20 5 q 29 16 22 16 q 72 36 52 17 q 92 96 92 55 z "},"M":{"ha":1021,"x_min":-11,"x_max":1031,"o":"m -1 0 q -7 3 -5 0 q -9 12 -11 7 q -3 16 -7 16 q 46 35 20 16 q 79 96 72 54 l 235 956 q 248 966 237 966 q 259 958 257 966 l 515 159 l 762 957 q 774 966 764 966 q 785 956 783 966 l 941 96 q 975 35 949 54 q 1023 16 1001 16 q 1030 12 1028 16 q 1028 3 1031 7 q 1022 0 1026 0 l 792 0 q 785 9 783 0 q 793 16 786 16 q 830 36 814 17 q 839 96 846 54 q 809 269 836 111 q 753 592 781 427 q 722 766 724 756 l 488 9 q 475 0 486 0 q 463 9 466 0 l 220 768 l 98 96 q 107 35 91 54 q 145 16 123 16 q 152 12 150 16 q 151 3 154 7 q 144 0 149 0 l -1 0 z "},"N":{"ha":836,"x_min":2,"x_max":832,"o":"m 11 0 q 5 3 7 0 q 3 10 2 6 q 11 16 4 16 q 48 26 26 17 q 94 61 71 36 q 116 119 116 86 l 116 954 q 120 962 116 958 q 129 966 123 966 q 139 960 136 966 l 699 149 l 699 846 q 690 885 699 867 q 668 915 681 903 q 640 935 655 926 q 612 947 625 943 q 593 950 600 950 q 587 955 589 950 q 588 963 585 959 q 595 966 590 966 l 824 966 q 830 963 827 966 q 831 956 832 960 q 824 950 830 950 q 798 944 814 950 q 763 926 782 937 q 732 893 745 914 q 719 846 719 872 l 719 13 q 715 4 719 8 q 706 0 711 0 q 696 5 699 0 l 136 817 l 136 119 q 145 80 136 98 q 167 51 154 62 q 195 31 180 39 q 222 20 210 23 q 241 16 235 16 q 248 12 246 16 q 247 3 250 7 q 240 0 245 0 l 11 0 z "},"O":{"ha":905,"x_min":28,"x_max":876,"o":"m 453 -14 q 228 53 326 -14 q 79 233 130 120 q 28 483 28 345 q 79 733 28 621 q 228 913 130 846 q 453 980 326 980 q 629 941 549 980 q 763 834 709 902 q 846 676 817 767 q 876 483 876 586 q 846 289 876 380 q 763 131 817 199 q 629 25 709 64 q 453 -14 549 -14 m 545 935 q 513 951 545 935 q 407 959 481 966 q 276 908 333 951 q 184 797 218 865 q 137 640 151 728 q 132 452 123 551 q 193 216 145 320 q 321 55 241 113 q 498 7 401 -2 q 629 58 572 15 q 720 170 686 101 q 768 327 754 238 q 772 514 781 416 q 732 697 762 612 q 656 842 702 781 q 545 935 610 903 z "},"P":{"ha":707,"x_min":20,"x_max":697,"o":"m 91 96 l 91 869 q 70 931 91 911 q 26 950 48 950 q 20 958 20 950 q 28 966 20 966 l 91 966 q 197 973 118 966 q 352 980 275 980 q 605 905 513 980 q 697 707 697 831 q 605 511 697 587 q 352 435 512 435 l 194 435 l 194 96 q 215 35 194 54 q 258 16 236 16 q 265 8 265 16 q 257 0 265 0 l 28 0 q 20 8 20 0 q 26 16 20 16 q 70 35 49 16 q 91 96 91 54 m 194 953 l 194 454 l 329 454 q 451 475 399 454 q 534 532 504 496 q 579 612 564 568 q 594 707 594 656 q 579 803 594 759 q 534 884 564 848 q 451 940 504 920 q 329 961 399 961 q 194 953 275 961 z "},"Q":{"ha":905,"x_min":28,"x_max":876,"o":"m 453 -14 q 228 53 326 -14 q 79 233 130 120 q 28 483 28 345 q 79 733 28 621 q 228 913 130 846 q 453 980 326 980 q 629 941 549 980 q 763 834 709 902 q 846 676 817 767 q 876 483 876 586 q 800 186 876 315 q 591 9 724 57 q 663 -109 640 -81 q 728 -148 696 -148 q 769 -130 755 -148 q 786 -94 783 -113 q 793 -88 787 -88 q 798 -91 796 -88 q 800 -96 800 -94 q 761 -165 793 -130 q 680 -200 728 -200 q 656 -197 667 -200 q 633 -186 644 -194 q 614 -171 623 -178 q 595 -150 606 -164 q 578 -126 585 -135 q 561 -99 572 -118 q 546 -71 551 -79 q 531 -39 542 -62 q 515 -9 519 -17 q 453 -14 480 -14 m 498 7 q 503 8 500 7 q 507 8 505 8 q 444 101 475 68 q 372 134 413 134 q 323 117 343 134 q 296 74 303 100 q 498 7 385 -3 m 545 935 q 513 951 545 935 q 407 959 481 966 q 276 908 333 951 q 184 797 218 865 q 137 640 151 728 q 132 452 123 551 q 183 241 144 336 q 284 85 222 145 q 319 166 290 132 q 401 200 348 200 q 456 186 431 200 q 505 146 482 173 q 544 93 528 119 q 581 29 560 68 q 738 210 688 77 q 772 514 788 342 q 732 697 762 612 q 656 842 702 781 q 545 935 610 903 z "},"R":{"ha":780,"x_min":20,"x_max":778,"o":"m 91 96 l 91 869 q 70 931 91 911 q 26 950 48 950 q 20 958 20 950 q 28 966 20 966 l 91 966 q 197 973 118 966 q 352 980 275 980 q 614 903 515 980 q 713 701 713 825 q 656 540 713 608 q 501 442 600 472 l 683 96 q 771 16 726 16 q 778 8 778 16 q 770 0 778 0 l 646 0 q 625 14 631 0 l 408 425 q 352 422 372 422 l 194 422 l 194 96 q 215 35 194 54 q 258 16 236 16 q 265 8 265 16 q 257 0 265 0 l 28 0 q 20 8 20 0 q 26 16 20 16 q 70 35 49 16 q 91 96 91 54 m 194 953 l 194 441 l 329 441 q 538 515 466 441 q 610 701 610 589 q 592 799 610 753 q 542 882 575 845 q 454 940 509 918 q 329 961 399 961 q 194 953 275 961 z "},"S":{"ha":712,"x_min":43,"x_max":685,"o":"m 582 214 q 564 311 582 267 q 514 385 545 355 q 442 439 483 415 q 357 483 401 464 q 268 520 312 502 q 182 558 223 538 q 111 604 142 579 q 61 663 79 628 q 43 742 43 699 q 82 866 43 810 q 180 951 121 922 q 305 980 240 980 q 474 949 389 980 q 602 884 559 919 q 618 849 618 872 q 617 737 618 802 q 617 634 617 672 q 614 627 617 629 q 607 627 610 625 q 604 633 604 629 q 583 757 604 698 q 524 861 562 816 q 429 934 486 907 q 305 961 372 961 q 178 921 224 961 q 132 812 132 881 q 151 739 132 772 q 202 682 170 706 q 275 636 234 658 q 363 593 317 614 q 455 552 409 573 q 542 504 500 531 q 615 446 583 477 q 666 371 647 415 q 685 275 685 327 q 640 125 685 192 q 523 22 595 58 q 366 -14 450 -14 q 272 -6 317 -14 q 189 17 228 1 q 124 47 149 33 q 63 81 98 60 q 47 110 47 91 q 47 253 47 157 q 47 382 47 349 q 51 389 47 387 q 57 389 54 391 q 60 382 60 387 q 145 111 60 218 q 366 5 230 5 q 522 62 462 5 q 582 214 582 120 z "},"T":{"ha":711,"x_min":0,"x_max":710,"o":"m 7 758 q 0 766 0 759 l 0 950 q 4 961 0 957 q 16 966 9 966 l 695 966 q 706 961 702 966 q 710 950 710 957 l 710 766 q 703 758 710 759 q 694 765 694 756 q 687 808 694 785 q 664 856 680 831 q 624 901 647 880 q 565 934 601 921 q 488 947 530 947 l 407 947 l 407 96 q 428 35 407 54 q 471 16 449 16 q 477 12 475 16 q 476 3 479 7 q 470 0 474 0 l 240 0 q 234 3 237 0 q 232 9 231 5 q 240 16 233 16 q 283 36 262 17 q 304 96 304 55 l 304 947 l 222 947 q 145 934 180 947 q 86 901 109 921 q 46 856 63 880 q 23 808 30 831 q 16 765 16 785 q 7 758 16 756 z "},"U":{"ha":806,"x_min":14,"x_max":796,"o":"m 21 950 q 14 958 14 950 q 22 966 14 966 l 252 966 q 260 958 260 966 q 253 950 260 950 q 210 931 231 950 q 189 869 189 911 l 189 323 q 253 85 189 166 q 438 5 317 5 q 538 21 493 5 q 618 73 583 38 q 673 166 654 107 q 693 305 693 226 l 693 768 q 673 902 693 853 q 616 950 653 950 q 609 958 609 950 q 617 966 609 966 l 788 966 q 796 958 796 966 q 789 950 796 950 q 732 902 752 950 q 712 768 712 853 l 712 305 q 637 63 712 140 q 405 -14 562 -14 q 85 323 85 -14 l 85 869 q 64 931 85 911 q 21 950 43 950 z "},"V":{"ha":811,"x_min":-17,"x_max":828,"o":"m -7 949 q -14 954 -12 949 q -14 962 -17 958 q -7 966 -12 966 l 222 966 q 229 963 226 966 q 231 957 231 960 q 222 950 229 950 q 201 942 210 949 q 188 917 192 935 q 195 869 184 899 q 326 484 254 697 q 438 150 397 271 q 562 520 477 263 q 670 843 648 777 q 675 895 679 874 q 655 928 671 916 q 622 945 639 940 q 589 950 606 950 q 582 955 584 950 q 584 963 581 959 q 590 966 586 966 l 819 966 q 825 963 823 966 q 827 957 828 960 q 819 949 826 949 q 748 923 786 949 q 690 845 710 898 l 407 9 q 395 0 404 0 q 383 9 387 0 l 91 873 q 46 931 76 914 q -7 949 17 949 z "},"W":{"ha":1181,"x_min":-16,"x_max":1198,"o":"m -7 950 q -14 955 -12 950 q -12 963 -16 959 q -5 966 -10 966 l 224 966 q 230 963 227 966 q 232 957 233 960 q 224 950 231 950 q 190 930 203 949 q 189 869 177 910 l 387 178 l 610 957 q 623 966 612 966 q 635 957 633 966 l 859 178 l 1050 843 q 1051 895 1057 874 q 1027 928 1045 916 q 992 945 1009 940 q 958 950 975 950 q 951 955 953 950 q 953 963 949 959 q 959 966 955 966 l 1189 966 q 1196 957 1198 966 q 1188 950 1195 950 q 1120 924 1155 949 q 1069 845 1085 899 l 829 9 q 817 0 827 0 q 805 9 807 0 l 581 787 l 357 9 q 345 0 355 0 q 333 9 335 0 l 84 873 q 44 933 72 916 q -7 950 17 950 z "},"X":{"ha":854,"x_min":-11,"x_max":863,"o":"m -3 0 q -11 8 -11 0 q -4 16 -11 16 q 77 43 29 16 q 157 120 125 70 l 391 492 l 150 873 q 92 931 125 913 q 39 950 60 950 q 32 958 32 950 q 40 966 32 966 l 269 966 q 277 958 277 966 q 271 950 277 950 q 254 945 262 950 q 242 931 247 941 q 240 905 237 922 q 255 869 243 889 l 452 557 l 639 854 q 651 899 652 880 q 638 929 650 918 q 612 945 626 940 q 582 950 597 950 q 575 958 575 950 q 583 966 575 966 l 813 966 q 821 958 821 966 q 814 950 821 950 q 733 923 781 950 q 652 845 684 895 l 462 542 l 745 92 q 802 35 770 53 q 855 16 833 16 q 863 8 863 16 q 854 0 863 0 l 625 0 q 616 8 616 0 q 624 16 616 16 q 646 24 636 16 q 655 51 655 32 q 640 96 656 71 l 400 476 l 171 113 q 169 41 146 65 q 228 16 191 16 q 235 8 235 16 q 227 0 235 0 l -3 0 z "},"Y":{"ha":734,"x_min":-14,"x_max":751,"o":"m -7 950 q -14 958 -14 950 q -6 966 -14 966 l 224 966 q 232 958 232 966 q 225 950 232 950 q 187 930 203 950 q 184 871 170 911 l 395 315 l 594 843 q 600 894 604 873 q 580 927 596 915 q 547 945 564 940 q 513 950 530 950 q 505 958 505 950 q 513 966 505 966 l 743 966 q 751 958 751 966 q 744 950 751 950 q 672 924 711 950 q 614 845 634 899 l 404 286 l 404 96 q 425 35 404 54 q 469 16 446 16 q 475 8 475 16 q 468 0 475 0 l 238 0 q 230 8 230 0 q 237 16 230 16 q 280 35 259 16 q 301 96 301 54 l 301 287 l 81 873 q 40 933 65 916 q -7 950 15 950 z "},"Z":{"ha":608,"x_min":12,"x_max":593,"o":"m 20 0 q 14 4 16 0 q 14 12 12 7 l 464 947 l 256 947 q 179 934 214 947 q 120 901 143 921 q 80 856 97 880 q 57 808 64 831 q 50 765 50 785 q 41 758 50 756 q 34 766 34 759 l 34 954 q 45 966 34 966 l 559 966 q 568 961 565 966 q 569 951 572 956 l 120 19 l 371 19 q 449 32 413 19 q 507 65 484 45 q 547 110 530 85 q 571 158 564 135 q 578 201 578 181 q 587 208 578 210 q 593 200 593 207 l 593 12 q 582 0 593 0 l 20 0 z "},"[":{"ha":255,"x_min":64,"x_max":207,"o":"m 193 31 q 207 16 207 30 q 202 4 207 9 q 191 0 198 0 l 79 0 q 68 4 73 0 q 64 16 64 9 l 64 950 q 68 961 64 957 q 79 966 73 966 l 191 966 q 202 961 198 966 q 207 950 207 957 q 193 935 207 936 q 145 901 157 931 q 134 782 134 871 l 134 184 q 139 92 134 123 q 157 47 144 60 q 193 31 169 33 z "},"\\":{"ha":600,"x_min":68,"x_max":532,"o":"m 530 12 q 530 4 532 7 q 522 0 527 0 l 471 0 q 463 5 465 0 l 70 954 q 71 962 68 958 q 79 966 74 966 l 129 966 q 137 960 135 966 l 530 12 z "},"]":{"ha":255,"x_min":49,"x_max":191,"o":"m 176 966 q 187 961 183 966 q 191 950 191 957 l 191 16 q 187 4 191 9 q 176 0 183 0 l 64 0 q 53 4 58 0 q 49 16 49 9 q 62 31 49 30 q 98 47 86 33 q 116 92 111 60 q 121 184 121 123 l 121 782 q 110 901 121 871 q 62 935 98 931 q 49 950 49 936 q 53 961 49 957 q 64 966 58 966 l 176 966 z "},"^":{"ha":504,"x_min":34,"x_max":470,"o":"m 468 574 q 468 566 470 570 q 460 562 465 562 q 452 567 454 562 l 277 911 l 102 567 q 94 562 99 562 l 43 562 q 36 566 39 562 q 36 574 34 570 l 242 980 l 261 980 l 468 574 z "},"_":{"ha":570,"x_min":31,"x_max":539,"o":"m 539 -14 l 31 -14 l 31 56 l 539 56 l 539 -14 z "},"a":{"ha":618,"x_min":20,"x_max":606,"o":"m 177 -14 q 65 28 110 -14 q 20 133 20 70 q 42 210 20 176 q 100 268 64 245 q 180 312 136 292 q 267 352 224 332 q 347 392 311 371 q 405 444 382 414 q 427 512 427 475 q 427 555 427 540 q 421 591 426 570 q 409 623 417 612 q 385 641 401 633 q 345 649 369 649 q 271 630 310 649 q 198 577 231 610 q 144 495 165 545 q 122 393 122 446 q 114 385 122 385 q 106 393 106 385 l 106 564 q 133 596 106 577 q 197 631 159 615 q 283 659 235 648 q 371 671 331 671 q 488 629 446 671 q 530 512 530 588 l 530 235 q 537 94 530 117 q 571 77 545 67 q 591 88 579 81 q 602 85 598 91 q 600 74 606 78 q 493 9 518 24 q 456 1 471 -4 q 434 23 441 7 q 427 62 427 39 l 427 138 q 177 -14 326 -14 m 427 453 q 377 396 409 422 q 312 353 345 370 q 244 316 279 337 q 183 274 210 295 q 139 219 157 254 q 122 141 122 185 q 155 59 122 87 q 239 31 187 31 q 341 67 290 31 q 427 166 392 104 l 427 453 z "},"b":{"ha":652,"x_min":-16,"x_max":619,"o":"m 414 671 q 566 597 512 671 q 619 400 619 524 q 531 102 619 218 q 304 -14 444 -14 q 155 64 212 -14 l 74 3 q 67 0 70 0 q 56 11 56 0 l 56 731 q 50 871 56 848 q 16 888 41 899 q -4 878 7 885 q -12 879 -8 876 q -16 886 -16 882 q -13 892 -16 889 q 94 957 68 942 q 131 965 116 970 q 152 944 145 960 q 159 904 159 928 l 159 422 q 256 598 188 525 q 414 671 324 671 m 281 11 q 365 36 323 11 q 440 109 406 62 q 495 232 474 156 q 517 400 517 308 q 482 584 517 522 q 384 646 447 646 q 277 598 330 646 q 192 474 224 551 q 159 319 159 398 l 159 83 q 281 11 206 11 z "},"c":{"ha":597,"x_min":31,"x_max":580,"o":"m 573 157 q 576 144 580 153 q 476 32 543 79 q 319 -14 410 -14 q 111 79 191 -14 q 31 315 31 172 q 56 458 31 390 q 122 571 82 526 q 213 644 163 617 q 312 671 263 671 q 519 601 433 671 q 528 581 528 593 l 528 414 q 520 406 528 406 q 513 414 513 406 q 508 460 513 433 q 489 522 503 488 q 457 586 476 557 q 404 634 437 614 q 331 654 371 654 q 189 564 244 654 q 134 328 134 473 q 200 109 134 194 q 374 24 267 24 q 483 59 436 24 q 560 153 530 94 q 573 157 564 161 z "},"d":{"ha":682,"x_min":33,"x_max":667,"o":"m 656 88 q 663 87 660 90 q 667 80 667 84 q 664 74 667 77 q 557 9 583 24 q 520 1 535 -4 q 499 23 506 7 q 492 62 492 39 l 492 229 q 396 57 464 128 q 238 -14 328 -14 q 87 59 140 -14 q 33 256 33 133 q 121 554 33 438 q 348 671 209 671 q 492 600 437 671 l 492 731 q 485 872 492 848 q 450 888 477 899 q 431 878 442 884 q 424 879 427 876 q 420 886 420 882 q 423 892 420 889 q 530 957 505 942 q 567 965 552 970 q 588 944 581 960 q 595 904 595 928 l 595 235 q 602 94 595 117 q 637 78 610 66 q 656 88 645 81 m 492 305 l 492 576 q 372 646 446 646 q 289 620 330 646 q 213 548 248 595 q 158 425 179 500 q 136 256 136 349 q 171 73 136 134 q 269 11 206 11 q 370 53 320 11 q 452 162 419 94 q 492 305 486 231 z "},"e":{"ha":593,"x_min":31,"x_max":578,"o":"m 573 157 q 574 144 578 153 q 475 32 541 79 q 319 -14 410 -14 q 111 79 191 -14 q 31 315 31 172 q 49 443 31 383 q 98 543 67 502 q 169 613 129 584 q 254 657 210 643 q 342 671 298 671 q 488 632 440 671 q 535 538 535 593 q 517 469 535 500 q 464 414 500 438 q 382 371 427 389 q 273 333 337 352 q 174 289 204 313 q 142 227 144 264 q 227 80 160 135 q 374 24 294 24 q 481 60 429 24 q 562 152 533 96 q 573 157 566 160 m 134 328 q 137 260 134 288 q 269 347 154 314 q 404 415 359 373 q 448 526 448 457 q 438 585 448 557 q 400 633 428 612 q 331 654 372 654 q 189 564 244 654 q 134 328 134 473 z "},"f":{"ha":368,"x_min":14,"x_max":489,"o":"m 489 890 l 489 724 q 481 715 489 715 q 473 723 473 715 q 450 831 473 776 q 384 925 427 886 q 292 964 340 964 q 219 923 243 964 q 196 785 196 883 l 196 656 l 361 656 q 370 647 370 656 q 361 637 370 637 l 196 637 l 196 96 q 217 35 196 54 q 260 16 238 16 q 268 8 268 16 q 260 0 268 0 l 30 0 q 22 8 22 0 q 29 16 22 16 q 73 35 52 16 q 94 96 94 54 l 94 637 l 24 637 q 14 647 14 637 q 24 656 14 656 l 94 656 l 94 771 q 271 980 94 980 q 384 960 329 980 q 479 910 439 939 q 489 890 489 903 z "},"g":{"ha":602,"x_min":3,"x_max":579,"o":"m 99 233 q 122 186 96 205 q 191 157 148 168 q 288 137 235 146 q 393 114 340 127 q 488 82 446 101 q 555 29 530 64 q 574 -53 579 -5 q 474 -208 565 -148 q 259 -272 384 -269 q 74 -233 142 -275 q 4 -129 5 -190 q 40 -48 3 -81 q 132 -3 77 -16 q 250 5 188 10 q 256 -1 257 5 q 248 -7 254 -7 q 138 -29 185 -3 q 92 -108 90 -56 q 130 -169 92 -144 q 218 -204 167 -194 q 326 -212 269 -214 q 424 -198 377 -211 q 505 -157 470 -185 q 545 -92 541 -130 q 523 -31 549 -56 q 453 6 497 -7 q 355 28 409 18 q 247 48 300 37 q 149 74 193 59 q 80 120 105 90 q 58 193 54 150 q 145 303 65 266 q 60 374 91 331 q 30 469 30 418 q 108 612 30 553 q 302 671 186 671 q 393 660 349 671 q 473 801 438 751 q 529 839 508 850 q 541 822 539 833 q 570 670 566 694 q 565 661 572 663 q 557 667 558 660 q 536 721 550 703 q 500 734 523 738 q 457 709 481 730 q 410 655 433 688 q 530 582 485 632 q 576 469 576 532 q 497 326 576 385 q 302 267 418 267 q 218 277 260 267 l 195 283 q 158 296 170 291 q 99 233 102 271 m 180 600 q 156 574 180 600 q 132 469 132 548 q 180 338 132 391 q 302 286 227 286 q 425 338 378 286 q 473 469 473 391 q 425 600 473 548 q 302 652 378 652 q 180 600 227 652 z "},"h":{"ha":652,"x_min":14,"x_max":637,"o":"m 626 88 q 633 87 630 90 q 637 80 637 84 q 634 74 637 77 q 528 9 553 24 q 491 1 505 -4 q 469 23 476 7 q 463 62 463 39 l 463 512 q 395 633 463 633 q 317 596 357 633 q 251 508 278 559 q 206 405 223 457 q 189 319 189 353 l 189 96 q 210 35 189 54 q 253 16 231 16 q 260 8 260 16 q 252 0 260 0 l 22 0 q 14 8 14 0 q 21 16 14 16 q 64 35 43 16 q 85 96 85 54 l 85 731 q 79 871 85 848 q 45 888 71 899 q 25 878 37 885 q 17 879 21 876 q 14 886 14 882 q 16 892 14 889 q 123 957 98 942 q 160 965 145 970 q 181 944 174 960 q 189 904 189 928 l 189 410 q 242 532 207 473 q 327 630 277 590 q 429 671 378 671 q 530 630 495 671 q 566 512 566 589 l 566 235 q 572 94 566 117 q 606 77 581 67 q 626 88 614 81 z "},"i":{"ha":280,"x_min":20,"x_max":265,"o":"m 258 16 q 265 8 265 16 q 257 0 265 0 l 28 0 q 20 8 20 0 q 26 16 20 16 q 70 34 49 16 q 91 96 91 52 l 91 422 q 84 562 91 538 q 50 579 76 589 q 31 568 42 576 q 23 570 26 567 q 20 576 20 572 q 22 583 20 581 q 128 647 103 632 q 165 655 151 661 q 187 634 180 650 q 194 594 194 618 l 194 96 q 215 35 194 54 q 258 16 236 16 m 193 734 q 183 723 193 734 q 142 713 172 713 q 92 734 113 713 q 71 785 71 755 q 92 836 71 815 q 142 857 113 857 q 193 836 172 857 q 214 785 214 815 q 193 734 214 755 z "},"j":{"ha":247,"x_min":-205,"x_max":211,"o":"m 190 734 q 179 723 190 734 q 139 713 169 713 q 88 734 109 713 q 66 785 66 755 q 88 836 66 815 q 139 857 109 857 q 190 836 169 857 q 211 785 211 815 q 190 734 211 755 m 125 647 q 162 655 147 661 q 183 634 176 650 q 190 594 190 618 l 190 -144 q 147 -309 190 -248 q 13 -370 104 -370 q -100 -349 -45 -370 q -196 -300 -155 -329 q -205 -279 -205 -293 l -205 -113 q -197 -105 -205 -105 q -189 -113 -189 -105 q -166 -221 -189 -165 q -99 -315 -142 -276 q -7 -353 -56 -353 q 64 -313 41 -353 q 87 -175 87 -273 l 87 422 q 81 562 87 539 q 47 579 73 589 q 27 568 39 576 q 19 570 23 567 q 16 576 16 572 q 18 583 16 580 q 125 647 100 632 z "},"k":{"ha":655,"x_min":14,"x_max":654,"o":"m 647 16 q 654 8 654 16 q 646 0 654 0 l 416 0 q 408 8 408 0 q 415 16 408 16 q 437 25 427 16 q 446 54 447 34 q 425 97 445 73 l 258 299 l 189 215 l 189 96 q 210 35 189 54 q 253 16 231 16 q 260 8 260 16 q 252 0 260 0 l 22 0 q 14 8 14 0 q 21 16 14 16 q 64 35 43 16 q 85 96 85 54 l 85 731 q 79 871 85 848 q 45 888 71 899 q 25 878 37 885 q 17 879 21 876 q 14 886 14 882 q 16 892 14 889 q 123 957 98 942 q 160 965 145 970 q 181 944 174 960 q 189 904 189 928 l 189 238 l 401 494 q 438 553 427 526 q 448 595 450 580 q 436 622 446 611 q 417 637 427 633 q 400 641 408 641 q 393 649 393 641 q 401 657 393 657 l 631 657 q 639 649 639 657 q 631 641 639 641 q 608 635 623 641 q 562 610 592 629 q 497 562 532 591 q 412 480 463 533 q 309 361 362 428 l 528 97 q 593 39 558 61 q 647 16 629 16 z "},"l":{"ha":275,"x_min":14,"x_max":260,"o":"m 253 16 q 260 8 260 16 q 252 0 260 0 l 22 0 q 14 8 14 0 q 21 16 14 16 q 64 35 43 16 q 85 96 85 54 l 85 731 q 79 871 85 848 q 45 888 71 899 q 25 878 37 885 q 17 879 21 876 q 14 886 14 882 q 16 892 14 889 q 123 957 98 942 q 160 965 145 970 q 181 944 174 960 q 189 904 189 928 l 189 96 q 210 35 189 54 q 253 16 231 16 z "},"m":{"ha":1034,"x_min":20,"x_max":1019,"o":"m 1008 88 q 1016 87 1013 90 q 1019 80 1019 84 q 1017 74 1019 77 q 910 9 935 24 q 873 1 888 -4 q 852 23 859 7 q 845 62 845 39 l 845 512 q 778 633 845 633 q 701 597 740 633 q 635 513 663 562 q 590 411 608 463 q 571 324 572 359 l 571 235 q 578 94 571 117 q 612 77 586 67 q 631 88 620 81 q 639 87 635 90 q 642 80 642 84 q 640 74 642 76 q 533 9 558 24 q 496 1 511 -4 q 475 23 481 7 q 468 62 468 39 l 468 512 q 401 633 468 633 q 323 596 362 633 q 256 508 283 559 q 211 405 229 457 q 194 319 194 353 l 194 96 q 215 35 194 54 q 258 16 236 16 q 265 8 265 16 q 257 0 265 0 l 28 0 q 20 8 20 0 q 26 16 20 16 q 70 35 49 16 q 91 96 91 54 l 91 422 q 84 562 91 539 q 50 579 76 589 q 31 568 42 576 q 23 570 26 567 q 20 576 20 572 q 22 583 20 581 q 128 647 103 632 q 165 655 151 661 q 187 634 180 650 q 194 594 194 618 l 194 410 q 247 532 212 473 q 333 630 282 590 q 435 671 383 671 q 536 630 500 671 q 571 512 571 589 l 571 410 q 625 532 590 474 q 710 630 659 590 q 812 671 760 671 q 912 630 878 671 q 947 512 947 589 l 947 235 q 955 94 947 117 q 989 78 963 66 q 1008 88 998 81 z "},"n":{"ha":658,"x_min":20,"x_max":642,"o":"m 631 88 q 639 87 635 90 q 642 80 642 84 q 640 74 642 76 q 533 9 558 24 q 496 1 511 -4 q 475 23 481 7 q 468 62 468 39 l 468 512 q 401 633 468 633 q 323 596 362 633 q 256 508 283 559 q 211 405 229 457 q 194 319 194 353 l 194 96 q 215 35 194 54 q 258 16 236 16 q 265 8 265 16 q 257 0 265 0 l 28 0 q 20 8 20 0 q 26 16 20 16 q 70 35 49 16 q 91 96 91 54 l 91 422 q 84 562 91 539 q 50 579 76 589 q 31 568 42 576 q 23 570 26 567 q 20 576 20 572 q 22 583 20 581 q 128 647 103 632 q 165 655 151 661 q 187 634 180 650 q 194 594 194 618 l 194 410 q 247 532 212 473 q 333 630 282 590 q 435 671 383 671 q 536 630 500 671 q 571 512 571 589 l 571 235 q 578 94 571 117 q 612 77 586 67 q 631 88 620 81 z "},"o":{"ha":687,"x_min":29,"x_max":657,"o":"m 183 625 q 219 648 183 625 q 343 671 255 671 q 504 625 431 671 q 616 500 576 578 q 657 328 657 422 q 616 156 657 235 q 504 32 576 78 q 343 -14 431 -14 q 183 32 255 -14 q 70 156 111 78 q 29 328 29 235 q 70 500 29 422 q 183 625 111 578 m 263 40 q 289 21 263 40 q 374 7 315 1 q 477 60 433 12 q 542 184 522 108 q 553 349 562 260 q 511 508 545 437 q 424 617 476 579 q 312 650 371 656 q 209 597 253 645 q 145 472 165 549 q 133 308 125 396 q 176 149 141 220 q 263 40 210 78 z "},"p":{"ha":684,"x_min":17,"x_max":651,"o":"m 446 671 q 597 597 544 671 q 651 400 651 524 q 563 102 651 218 q 336 -14 475 -14 q 191 59 246 -14 l 191 -212 q 213 -274 191 -254 q 256 -293 234 -293 q 262 -301 262 -293 q 254 -309 262 -309 l 24 -309 q 17 -301 17 -309 q 24 -293 17 -293 q 67 -274 45 -293 q 88 -212 88 -254 l 88 422 q 81 562 88 539 q 47 579 73 589 q 28 568 39 576 q 20 570 24 567 q 17 576 17 572 q 19 583 17 581 q 125 648 100 633 q 162 656 148 661 q 184 634 177 650 q 191 595 191 618 l 191 422 q 288 598 220 525 q 446 671 356 671 m 313 11 q 396 36 355 11 q 472 109 437 62 q 527 232 506 156 q 549 400 549 308 q 514 584 549 522 q 416 646 479 646 q 309 598 361 646 q 224 474 256 551 q 191 319 191 398 l 191 83 q 313 11 238 11 z "},"q":{"ha":651,"x_min":33,"x_max":667,"o":"m 656 -220 q 663 -222 660 -220 q 667 -229 667 -225 q 664 -235 667 -233 q 557 -300 583 -285 q 520 -308 535 -313 q 499 -287 506 -302 q 492 -247 492 -271 l 492 229 q 396 57 464 128 q 238 -14 328 -14 q 87 59 140 -14 q 33 256 33 133 q 121 554 33 438 q 348 671 209 671 q 496 595 439 671 q 576 656 567 656 q 592 642 589 656 q 595 595 595 627 l 595 -74 q 602 -215 595 -191 q 637 -231 610 -242 q 656 -220 645 -227 m 492 305 l 492 422 l 492 436 l 492 576 q 372 646 446 646 q 289 620 330 646 q 213 548 248 595 q 158 425 179 500 q 136 256 136 349 q 171 73 136 134 q 269 11 206 11 q 370 53 320 11 q 452 162 419 94 q 492 305 486 231 z "},"r":{"ha":528,"x_min":20,"x_max":506,"o":"m 26 16 q 70 35 49 16 q 91 96 91 54 l 91 422 q 84 562 91 539 q 50 579 76 589 q 31 568 42 576 q 23 570 26 567 q 20 576 20 572 q 22 583 20 581 q 128 647 103 632 q 165 655 151 661 q 187 634 180 650 q 194 594 194 618 l 194 412 q 271 601 220 531 q 392 671 322 671 q 471 640 435 671 q 506 589 506 609 l 506 394 q 502 387 506 389 q 494 387 498 385 q 490 393 490 389 q 452 537 490 485 q 359 590 414 590 q 285 560 319 590 q 233 486 252 530 q 204 403 214 443 q 194 336 194 363 l 194 96 q 215 35 194 54 q 258 16 236 16 q 265 8 265 16 q 257 0 265 0 l 28 0 q 20 8 20 0 q 26 16 20 16 z "},"s":{"ha":557,"x_min":41,"x_max":524,"o":"m 115 532 q 138 466 115 494 q 197 422 161 438 q 276 393 233 406 q 363 366 320 380 q 443 331 407 351 q 502 276 479 311 q 524 193 524 241 q 456 47 524 109 q 279 -14 388 -14 q 153 5 216 -14 q 52 56 91 24 q 42 76 42 64 q 42 138 42 94 q 41 241 41 183 q 50 250 41 250 q 58 241 58 250 q 66 174 58 208 q 92 110 74 141 q 135 55 109 79 q 198 17 160 31 q 281 3 236 3 q 360 15 326 3 q 413 47 394 27 q 443 91 433 68 q 452 138 452 114 q 430 218 452 185 q 371 270 407 252 q 291 302 334 288 q 203 330 247 316 q 123 362 159 344 q 64 414 87 381 q 41 494 41 448 q 62 573 41 538 q 116 628 83 608 q 186 660 149 649 q 259 671 223 671 q 380 652 321 671 q 479 601 439 633 q 488 581 488 593 l 488 416 q 484 408 488 410 q 476 408 480 406 q 473 415 473 410 q 461 499 473 459 q 426 576 450 540 q 360 633 402 612 q 261 654 317 654 q 157 618 198 654 q 115 532 115 583 z "},"t":{"ha":351,"x_min":12,"x_max":348,"o":"m 332 82 q 339 86 335 86 q 346 82 344 86 q 345 73 348 79 q 291 11 324 35 q 220 -14 258 -14 q 119 27 155 -14 q 84 144 84 68 l 84 594 l 84 637 l 22 637 q 12 647 12 637 q 22 656 12 656 l 84 656 q 81 714 83 694 q 73 745 79 734 q 55 754 66 756 q 24 741 43 753 q 16 742 20 739 q 12 749 12 745 q 15 755 12 752 q 121 819 96 804 q 158 827 144 833 q 180 806 173 822 q 187 766 187 790 l 187 656 l 261 656 q 271 647 271 656 q 261 637 271 637 l 187 637 l 187 144 q 254 24 187 24 q 332 82 297 24 z "},"u":{"ha":654,"x_min":16,"x_max":638,"o":"m 627 88 q 635 87 631 90 q 638 80 638 84 q 635 74 638 77 q 529 9 554 24 q 492 1 507 -4 q 471 23 477 7 q 464 62 464 39 l 464 247 q 411 125 446 183 q 325 26 376 66 q 223 -14 275 -14 q 122 27 157 -14 q 87 144 87 68 l 87 422 q 80 562 87 539 q 46 579 72 589 q 26 568 38 576 q 19 570 22 567 q 16 576 16 572 q 18 583 16 581 q 124 647 99 632 q 161 655 146 661 q 183 634 176 650 q 190 594 190 618 l 190 144 q 257 24 190 24 q 335 60 296 24 q 402 148 374 97 q 447 252 429 199 q 464 338 464 304 l 464 422 q 457 562 464 539 q 423 579 449 589 q 404 568 415 576 q 396 570 399 567 q 392 576 392 572 q 395 583 392 580 q 501 647 476 632 q 538 655 524 661 q 560 634 553 650 q 567 594 567 618 l 567 235 q 574 94 567 117 q 608 77 582 67 q 627 88 616 81 z "},"v":{"ha":661,"x_min":0,"x_max":665,"o":"m 656 656 q 663 654 660 656 q 665 648 665 651 q 656 640 663 640 q 582 598 620 640 q 511 473 544 557 l 345 9 q 332 0 342 0 q 319 9 323 0 l 166 423 q 92 565 128 529 q 11 574 56 602 q 3 575 7 572 q 0 582 0 578 q 3 588 0 585 q 100 647 75 632 q 168 629 132 667 q 235 509 204 591 l 370 131 l 483 450 q 500 521 496 490 q 495 573 503 552 q 473 607 487 593 q 436 628 460 621 q 388 637 412 635 q 330 640 363 640 q 322 648 322 640 q 331 656 322 656 l 656 656 z "},"w":{"ha":993,"x_min":0,"x_max":998,"o":"m 989 656 q 995 654 992 656 q 997 648 998 651 q 989 640 996 640 q 914 598 952 640 q 843 473 876 557 l 677 9 q 665 0 674 0 q 652 9 655 0 l 498 423 q 497 427 498 425 q 496 431 496 429 l 345 9 q 332 0 342 0 q 319 9 323 0 l 166 423 q 92 565 128 529 q 11 574 56 602 q 3 575 7 572 q 0 582 0 578 q 3 588 0 585 q 100 647 75 632 q 168 629 132 667 q 235 509 204 591 l 370 131 l 483 450 q 485 453 484 451 q 486 457 486 456 q 418 571 452 543 q 343 574 384 600 q 336 575 339 572 q 332 582 332 578 q 335 588 332 585 q 432 647 407 632 q 500 629 465 667 q 568 509 536 591 l 702 131 l 815 450 q 832 521 829 490 q 827 573 836 552 q 806 607 819 593 q 768 628 792 621 q 720 637 745 635 q 662 640 695 640 q 654 648 654 640 q 663 656 654 656 l 989 656 z "},"x":{"ha":648,"x_min":1,"x_max":646,"o":"m 639 16 q 646 8 646 16 q 638 0 646 0 l 408 0 q 400 8 400 0 q 407 16 400 16 q 430 24 419 16 q 444 51 441 33 q 430 96 448 68 l 300 303 l 170 96 q 163 60 159 75 q 184 35 168 45 q 215 21 200 26 q 240 16 231 16 q 248 8 248 16 q 239 0 248 0 l 9 0 q 1 8 1 0 q 9 16 1 16 q 79 40 28 16 q 151 96 130 63 l 290 319 l 138 560 q 82 617 117 595 q 33 640 47 640 q 25 648 25 640 q 33 656 25 656 l 263 656 q 271 648 271 656 q 264 640 271 640 q 241 632 252 640 q 227 606 230 624 q 241 560 224 588 l 351 386 l 460 560 q 467 596 472 581 q 447 621 463 612 q 415 635 431 631 q 391 640 400 640 q 383 648 383 640 q 391 656 383 656 l 621 656 q 629 648 629 656 q 622 640 629 640 q 551 617 602 640 q 479 560 500 593 l 361 370 l 533 96 q 589 39 555 62 q 639 16 624 16 z "},"y":{"ha":661,"x_min":-54,"x_max":666,"o":"m 657 656 q 665 648 666 656 q 656 640 663 640 q 582 598 620 640 q 511 473 545 557 l 342 0 q 217 -225 290 -143 q 62 -307 144 -307 q -20 -278 14 -307 q -54 -199 -54 -249 q -49 -159 -54 -178 q -30 -125 -43 -141 q -6 -99 -17 -110 q 28 -74 5 -87 q 64 -55 52 -61 q 105 -35 77 -48 q 144 -16 133 -22 q 192 9 172 -3 q 231 40 212 22 q 258 77 250 58 q 267 124 267 97 q 255 184 267 151 l 166 423 q 92 565 128 529 q 12 574 56 602 q 4 575 7 572 q 0 582 0 578 q 3 588 0 585 q 100 647 75 632 q 169 629 133 667 q 235 509 204 591 l 370 131 l 484 450 q 500 533 500 498 q 490 588 501 568 q 453 621 478 608 q 399 636 428 633 q 331 640 371 640 q 323 647 324 640 q 325 654 322 651 q 331 656 327 656 l 657 656 m 102 -229 q 231 -165 174 -229 q 323 0 288 -100 l 283 109 q 150 -28 273 29 q 58 -85 90 -56 q 26 -157 26 -114 q 48 -209 26 -189 q 102 -229 71 -229 z "},"z":{"ha":577,"x_min":18,"x_max":552,"o":"m 552 200 q 551 158 551 198 q 552 68 551 119 q 552 15 552 18 q 548 4 552 9 q 538 0 544 0 l 29 0 q 21 5 24 0 q 21 15 18 9 l 440 637 l 264 637 q 172 622 212 637 q 109 581 132 607 q 73 523 85 555 q 61 456 61 491 q 52 448 61 447 q 45 456 45 450 l 45 645 q 49 653 45 650 q 57 656 52 656 l 526 656 q 536 652 532 656 q 541 642 541 648 q 538 633 541 636 l 124 19 l 334 19 q 486 70 436 19 q 536 201 536 120 q 545 208 536 210 q 552 200 552 207 z "},"{":{"ha":297,"x_min":58,"x_max":248,"o":"m 239 960 q 181 918 201 956 q 161 835 161 880 q 168 773 161 810 q 182 703 174 736 q 194 633 189 670 q 196 569 198 597 q 179 517 194 541 q 135 483 164 494 q 179 449 164 472 q 196 397 194 425 q 194 332 198 369 q 182 263 189 296 q 168 193 174 230 q 161 131 161 155 q 181 48 161 86 q 239 5 201 9 q 248 -4 248 4 l 248 -5 q 237 -14 248 -14 q 104 26 150 -12 q 58 131 58 64 q 74 223 58 171 q 106 315 90 275 q 132 392 122 355 q 131 450 142 429 q 81 473 120 471 q 73 482 73 473 l 73 483 l 73 483 l 73 484 q 75 490 73 487 q 81 493 78 493 q 131 516 120 495 q 132 574 142 537 q 106 650 122 610 q 74 743 90 690 q 58 835 58 795 q 104 940 58 901 q 237 980 150 978 q 248 970 248 980 l 248 970 q 239 960 248 962 z "},"|":{"ha":198,"x_min":64,"x_max":134,"o":"m 125 980 q 134 971 134 980 l 134 -5 q 125 -14 134 -14 l 73 -14 q 64 -5 64 -14 l 64 971 q 73 980 64 980 l 125 980 z "},"}":{"ha":297,"x_min":49,"x_max":238,"o":"m 215 473 q 165 450 176 471 q 164 392 154 429 q 191 315 174 355 q 222 223 207 275 q 238 131 238 171 q 192 26 238 64 q 58 -14 146 -12 q 49 -5 49 -14 l 49 -4 q 57 5 49 4 q 115 48 95 9 q 135 131 135 86 q 126 206 135 159 q 109 292 117 252 q 99 371 102 331 q 112 441 97 412 q 161 483 126 470 q 112 525 126 496 q 99 594 97 554 q 109 674 102 635 q 126 760 117 713 q 135 835 135 806 q 115 918 135 880 q 57 960 95 956 q 49 970 49 962 l 49 970 q 58 980 49 980 q 192 940 146 978 q 238 835 238 901 q 222 743 238 795 q 191 650 207 690 q 164 574 174 610 q 165 516 154 537 q 215 493 176 495 q 221 490 218 493 q 224 484 224 487 l 224 483 l 224 483 l 224 482 q 215 473 224 473 z "},"~":{"ha":416,"x_min":33,"x_max":382,"o":"m 381 441 q 379 434 382 437 q 371 431 376 431 q 361 437 364 431 q 331 452 356 449 q 251 451 306 454 q 176 448 197 448 q 71 465 104 448 q 33 524 37 482 q 36 532 33 529 q 43 535 39 535 q 53 528 51 535 q 77 514 57 515 q 150 516 96 512 q 241 521 203 521 q 344 502 311 521 q 381 441 378 482 z "}," ":{"ha":439,"x_min":0,"x_max":0,"o":""},"©":{"ha":1066,"x_min":50,"x_max":1016,"o":"m 778 271 q 786 266 783 271 q 786 258 789 262 q 685 160 753 196 q 533 123 617 123 q 369 170 440 123 q 262 294 298 216 q 226 466 226 371 q 266 638 226 559 q 375 763 306 717 q 526 808 444 808 q 624 794 574 808 q 708 753 674 779 q 742 697 742 727 l 742 552 q 734 544 742 544 q 726 551 726 544 q 721 597 726 570 q 703 659 716 624 q 670 722 690 693 q 618 770 651 750 q 545 789 585 789 q 438 746 488 789 q 358 628 388 703 q 328 466 328 553 q 351 302 328 374 q 426 187 374 231 q 551 142 477 142 q 680 176 618 142 q 770 266 741 210 q 778 271 773 271 m 291 901 q 347 933 291 901 q 533 966 402 966 q 775 901 664 966 q 951 725 886 836 q 1016 483 1016 614 q 951 241 1016 352 q 775 65 886 130 q 533 0 664 0 q 291 65 402 0 q 115 241 180 130 q 50 483 50 352 q 115 725 50 614 q 291 901 180 836 m 353 56 q 396 37 353 56 q 533 19 439 19 q 713 56 627 19 q 862 154 800 92 q 960 302 924 216 q 997 483 997 389 q 960 663 997 577 q 862 811 924 749 q 713 910 800 873 q 533 947 627 947 q 353 910 439 947 q 204 811 267 873 q 106 663 142 749 q 69 483 69 577 q 106 302 69 389 q 204 154 142 216 q 353 56 267 92 z "},"­":{"ha":0,"x_min":0,"x_max":0,"o":""},"®":{"ha":412,"x_min":45,"x_max":368,"o":"m 92 933 q 115 956 92 933 q 206 980 139 980 q 321 933 273 980 q 368 819 368 886 q 321 704 368 751 q 206 656 273 656 q 92 704 139 656 q 45 819 45 751 q 92 933 45 886 m 105 718 q 126 696 105 718 q 206 675 147 675 q 307 718 265 675 q 349 819 349 760 q 307 919 349 878 q 206 961 265 961 q 105 919 147 961 q 64 819 64 878 q 105 718 64 760 m 290 732 q 291 730 291 732 q 289 728 291 728 l 239 728 q 237 730 237 728 q 239 732 237 732 q 246 735 244 732 q 242 747 248 739 l 193 812 l 175 812 l 175 747 q 188 732 175 732 q 189 730 189 732 q 188 728 189 728 l 175 728 l 151 728 l 138 728 q 136 730 136 728 q 138 732 136 732 q 151 747 151 732 l 151 901 q 138 916 151 916 q 136 918 136 916 q 138 920 136 920 l 151 920 q 174 921 156 920 q 206 922 191 922 q 260 907 239 922 q 282 867 282 892 q 264 830 282 845 q 218 812 246 815 l 267 747 q 290 732 279 732 m 175 819 l 202 819 q 255 867 255 819 q 242 903 255 889 q 202 916 229 916 q 175 915 191 916 l 175 819 z "},"À":{"ha":811,"x_min":-18,"x_max":826,"o":"m 818 16 q 823 14 821 16 q 826 8 826 11 q 823 3 826 5 q 818 0 821 0 l 588 0 q 581 9 579 0 q 588 16 582 16 q 610 24 600 17 q 623 49 619 31 q 616 96 627 67 q 494 454 580 201 l 252 454 q 140 123 195 283 q 136 72 132 92 q 156 39 140 51 q 188 21 172 26 q 222 16 205 16 q 229 12 227 16 q 227 3 231 7 q 221 0 225 0 l -9 0 q -15 3 -12 0 q -17 9 -18 5 q -8 16 -16 16 q 63 42 25 17 q 121 121 101 68 l 404 957 q 416 966 407 966 q 428 957 425 966 l 720 92 q 764 34 735 52 q 818 16 793 17 m 258 473 l 488 473 q 372 817 460 558 q 312 635 353 761 q 258 473 270 510 m 425 1026 l 404 1026 l 270 1202 l 359 1202 l 425 1026 z "},"Á":{"ha":811,"x_min":-18,"x_max":826,"o":"m 818 16 q 823 14 821 16 q 826 8 826 11 q 823 3 826 5 q 818 0 821 0 l 588 0 q 581 9 579 0 q 588 16 582 16 q 610 24 600 17 q 623 49 619 31 q 616 96 627 67 q 494 454 580 201 l 252 454 q 140 123 195 283 q 136 72 132 92 q 156 39 140 51 q 188 21 172 26 q 222 16 205 16 q 229 12 227 16 q 227 3 231 7 q 221 0 225 0 l -9 0 q -15 3 -12 0 q -17 9 -18 5 q -8 16 -16 16 q 63 42 25 17 q 121 121 101 68 l 404 957 q 416 966 407 966 q 428 957 425 966 l 720 92 q 764 34 735 52 q 818 16 793 17 m 258 473 l 488 473 q 373 817 423 669 q 258 473 361 781 m 569 1202 l 435 1026 l 415 1026 l 481 1202 l 569 1202 z "},"Â":{"ha":811,"x_min":-18,"x_max":826,"o":"m 818 16 q 823 14 821 16 q 826 8 826 11 q 823 3 826 5 q 818 0 821 0 l 588 0 q 581 9 579 0 q 588 16 582 16 q 610 24 600 17 q 623 49 619 31 q 616 96 627 67 q 494 454 580 201 l 252 454 q 140 123 195 283 q 136 72 132 92 q 156 39 140 51 q 188 21 172 26 q 222 16 205 16 q 229 12 227 16 q 227 3 231 7 q 221 0 225 0 l -9 0 q -15 3 -12 0 q -17 9 -18 5 q -8 16 -16 16 q 63 42 25 17 q 121 121 101 68 l 404 957 q 416 966 407 966 q 428 957 425 966 l 720 92 q 764 34 735 52 q 818 16 793 17 m 258 473 l 488 473 q 373 817 423 669 q 258 473 361 781 m 414 1115 l 347 1026 l 326 1026 l 391 1202 l 437 1202 l 503 1026 l 481 1026 l 414 1115 z "},"Ã":{"ha":811,"x_min":-18,"x_max":826,"o":"m 818 16 q 823 14 821 16 q 826 8 826 11 q 823 3 826 5 q 818 0 821 0 l 588 0 q 581 9 579 0 q 588 16 582 16 q 610 24 600 17 q 623 49 619 31 q 616 96 627 67 q 494 454 580 201 l 252 454 q 140 123 195 283 q 136 72 132 92 q 156 39 140 51 q 188 21 172 26 q 222 16 205 16 q 229 12 227 16 q 227 3 231 7 q 221 0 225 0 l -9 0 q -15 3 -12 0 q -17 9 -18 5 q -8 16 -16 16 q 63 42 25 17 q 121 121 101 68 l 404 957 q 416 966 407 966 q 428 957 425 966 l 720 92 q 764 34 735 52 q 818 16 793 17 m 258 473 l 488 473 q 373 817 423 669 q 258 473 361 781 m 347 1050 q 294 1160 294 1050 l 313 1160 q 346 1116 313 1116 q 419 1147 370 1116 q 488 1177 468 1177 q 527 1150 515 1177 q 539 1066 539 1123 l 521 1066 q 509 1098 521 1087 q 481 1109 496 1109 q 413 1080 457 1109 q 347 1050 368 1050 z "},"Ä":{"ha":811,"x_min":-18,"x_max":826,"o":"m 818 16 q 823 14 821 16 q 826 8 826 11 q 823 3 826 5 q 818 0 821 0 l 588 0 q 581 9 579 0 q 588 16 582 16 q 610 24 600 17 q 623 49 619 31 q 616 96 627 67 q 494 454 580 201 l 252 454 q 140 123 195 283 q 136 72 132 92 q 156 39 140 51 q 188 21 172 26 q 222 16 205 16 q 229 12 227 16 q 227 3 231 7 q 221 0 225 0 l -9 0 q -15 3 -12 0 q -17 9 -18 5 q -8 16 -16 16 q 63 42 25 17 q 121 121 101 68 l 404 957 q 416 966 407 966 q 428 957 425 966 l 720 92 q 764 34 735 52 q 818 16 793 17 m 258 473 l 488 473 q 373 817 423 669 q 258 473 361 781 m 373 1076 q 365 1068 373 1076 q 334 1060 357 1060 q 296 1076 312 1060 q 280 1114 280 1092 q 296 1153 280 1137 q 334 1168 312 1168 q 373 1153 357 1168 q 389 1114 389 1137 q 373 1076 389 1092 m 529 1076 q 521 1068 529 1076 q 490 1060 513 1060 q 452 1076 468 1060 q 436 1114 436 1092 q 452 1153 436 1137 q 490 1168 468 1168 q 529 1153 513 1168 q 545 1114 545 1137 q 529 1076 545 1092 z "},"Å":{"ha":811,"x_min":-18,"x_max":826,"o":"m 472 1055 q 460 1042 472 1055 q 412 1030 448 1030 q 351 1055 376 1030 q 327 1114 327 1079 q 351 1174 327 1149 q 412 1198 376 1198 q 472 1174 448 1198 q 496 1114 496 1149 q 472 1055 496 1079 m 440 1163 q 435 1173 440 1163 q 412 1183 429 1183 q 383 1163 395 1183 q 371 1114 371 1143 q 383 1066 371 1086 q 412 1046 395 1046 q 440 1066 429 1046 q 452 1114 452 1086 q 440 1163 452 1143 m 818 16 q 823 14 821 16 q 826 8 826 11 q 823 3 826 5 q 818 0 821 0 l 588 0 q 581 9 579 0 q 588 16 582 16 q 610 24 600 17 q 623 49 619 31 q 616 96 627 67 q 494 454 580 201 l 252 454 q 140 123 195 283 q 136 72 132 92 q 156 39 140 51 q 188 21 172 26 q 222 16 205 16 q 229 12 227 16 q 227 3 231 7 q 221 0 225 0 l -9 0 q -15 3 -12 0 q -17 9 -18 5 q -8 16 -16 16 q 63 42 25 17 q 121 121 101 68 l 404 957 q 416 966 407 966 q 428 957 425 966 l 720 92 q 764 34 735 52 q 818 16 793 17 m 258 473 l 488 473 q 373 817 423 669 q 258 473 361 781 z "},"Æ":{"ha":932,"x_min":-18,"x_max":904,"o":"m 897 208 q 904 200 904 207 l 904 20 q 898 6 904 12 q 884 0 892 0 l 309 0 q 303 3 306 0 q 301 9 300 5 q 309 16 302 16 q 352 36 332 16 q 372 96 372 55 l 372 454 l 252 454 q 140 123 195 283 q 136 72 132 92 q 156 39 140 51 q 188 21 172 26 q 222 16 205 16 q 229 12 227 16 q 227 3 231 7 q 221 0 225 0 l -9 0 q -15 3 -12 0 q -17 9 -18 5 q -8 16 -16 16 q 63 42 25 17 q 121 121 101 68 l 372 865 l 372 869 q 351 930 372 911 q 308 949 330 949 q 301 955 303 949 q 304 964 300 960 q 309 966 306 966 l 864 966 q 878 960 872 966 q 884 946 884 954 l 884 766 q 877 758 884 759 q 868 765 868 756 q 661 947 868 947 l 475 947 l 475 372 q 572 520 505 456 q 642 577 602 549 q 705 621 682 606 q 745 664 728 637 q 762 728 762 692 q 770 735 763 735 q 778 727 778 735 l 778 352 q 770 344 778 345 q 762 351 762 342 q 749 485 762 435 q 711 550 735 535 q 655 554 687 566 q 584 506 623 543 q 475 254 475 401 l 475 19 l 681 19 q 775 33 735 19 q 836 65 815 46 q 869 111 857 83 q 885 158 882 138 q 888 201 888 178 q 891 207 888 204 q 897 208 894 209 m 372 473 l 372 816 q 258 473 327 684 l 372 473 z "},"Ç":{"ha":797,"x_min":28,"x_max":777,"o":"m 766 204 q 774 200 771 204 q 774 192 777 197 q 669 54 741 111 q 492 -13 597 -4 q 518 -67 518 -35 q 499 -116 518 -96 q 446 -143 479 -136 q 542 -176 507 -149 q 576 -250 576 -203 q 566 -300 576 -277 q 540 -339 556 -323 q 503 -365 524 -354 q 462 -380 482 -375 q 424 -385 442 -385 q 337 -365 375 -385 q 299 -321 299 -346 l 299 -216 q 302 -213 299 -213 q 305 -216 305 -213 q 312 -258 305 -234 q 331 -309 318 -282 q 369 -353 344 -335 q 427 -370 395 -370 q 496 -344 468 -370 q 524 -271 524 -317 q 492 -186 524 -224 q 406 -147 460 -149 q 403 -144 403 -147 q 406 -140 403 -140 q 458 -119 439 -139 q 477 -67 477 -100 q 458 -14 477 -33 q 297 20 374 -14 q 160 116 220 54 q 64 274 100 178 q 28 483 28 369 q 61 689 28 594 q 151 847 95 784 q 281 945 208 909 q 434 980 354 980 q 476 977 455 980 q 513 971 497 975 q 549 961 529 968 q 579 949 568 954 q 611 934 591 945 q 638 919 631 923 q 667 901 646 914 q 694 884 689 888 q 711 856 707 877 q 752 584 725 775 q 750 577 753 579 q 744 576 747 574 q 741 581 741 577 q 719 666 734 619 q 675 765 703 713 q 614 861 648 818 q 532 932 580 904 q 434 961 485 961 q 216 834 300 961 q 131 509 131 708 q 161 308 131 401 q 242 154 191 216 q 360 57 292 92 q 501 22 427 22 q 661 72 594 22 q 758 199 728 121 q 766 204 760 204 z "},"È":{"ha":652,"x_min":20,"x_max":624,"o":"m 617 208 q 624 200 624 207 l 624 20 q 618 6 624 12 q 604 0 612 0 l 29 0 q 23 3 26 0 q 21 9 20 5 q 29 16 22 16 q 72 36 52 16 q 92 96 92 55 l 92 869 q 71 930 92 911 q 28 949 50 949 q 21 955 23 949 q 24 964 20 960 q 29 966 26 966 l 584 966 q 598 960 592 966 q 604 946 604 954 l 604 766 q 597 758 604 759 q 588 765 588 756 q 381 947 588 947 l 195 947 l 195 372 q 292 520 224 456 q 362 577 321 549 q 425 621 402 606 q 465 664 448 637 q 481 728 481 692 q 490 735 483 735 q 498 727 498 735 l 498 352 q 490 344 498 345 q 482 351 482 342 q 469 485 482 435 q 431 550 455 535 q 375 554 407 566 q 304 506 343 543 q 195 254 195 401 l 195 19 l 401 19 q 495 33 455 19 q 556 65 535 46 q 589 111 577 83 q 605 158 602 138 q 608 201 608 178 q 611 207 608 204 q 617 208 614 209 m 372 1026 l 351 1026 l 217 1202 l 306 1202 l 372 1026 z "},"É":{"ha":652,"x_min":20,"x_max":624,"o":"m 617 208 q 624 200 624 207 l 624 20 q 618 6 624 12 q 604 0 612 0 l 29 0 q 23 3 26 0 q 21 9 20 5 q 29 16 22 16 q 72 36 52 16 q 92 96 92 55 l 92 869 q 71 930 92 911 q 28 949 50 949 q 21 955 23 949 q 24 964 20 960 q 29 966 26 966 l 584 966 q 598 960 592 966 q 604 946 604 954 l 604 766 q 597 758 604 759 q 588 765 588 756 q 381 947 588 947 l 195 947 l 195 372 q 292 520 224 456 q 362 577 321 549 q 425 621 402 606 q 465 664 448 637 q 481 728 481 692 q 490 735 483 735 q 498 727 498 735 l 498 352 q 490 344 498 345 q 482 351 482 342 q 469 485 482 435 q 431 550 455 535 q 375 554 407 566 q 304 506 343 543 q 195 254 195 401 l 195 19 l 401 19 q 495 33 455 19 q 556 65 535 46 q 589 111 577 83 q 605 158 602 138 q 608 201 608 178 q 611 207 608 204 q 617 208 614 209 m 494 1202 l 361 1026 l 340 1026 l 406 1202 l 494 1202 z "},"Ê":{"ha":652,"x_min":20,"x_max":624,"o":"m 617 208 q 624 200 624 207 l 624 20 q 618 6 624 12 q 604 0 612 0 l 29 0 q 23 3 26 0 q 21 9 20 5 q 29 16 22 16 q 72 36 52 16 q 92 96 92 55 l 92 869 q 71 930 92 911 q 28 949 50 949 q 21 955 23 949 q 24 964 20 960 q 29 966 26 966 l 584 966 q 598 960 592 966 q 604 946 604 954 l 604 766 q 597 758 604 759 q 588 765 588 756 q 381 947 588 947 l 195 947 l 195 372 q 292 520 224 456 q 362 577 321 549 q 425 621 402 606 q 465 664 448 637 q 481 728 481 692 q 490 735 483 735 q 498 727 498 735 l 498 352 q 490 344 498 345 q 482 351 482 342 q 469 485 482 435 q 431 550 455 535 q 375 554 407 566 q 304 506 343 543 q 195 254 195 401 l 195 19 l 401 19 q 495 33 455 19 q 556 65 535 46 q 589 111 577 83 q 605 158 602 138 q 608 201 608 178 q 611 207 608 204 q 617 208 614 209 m 364 1115 l 297 1026 l 276 1026 l 342 1202 l 387 1202 l 452 1026 l 431 1026 l 364 1115 z "},"Ë":{"ha":652,"x_min":20,"x_max":624,"o":"m 617 208 q 624 200 624 207 l 624 20 q 618 6 624 12 q 604 0 612 0 l 29 0 q 23 3 26 0 q 21 9 20 5 q 29 16 22 16 q 72 36 52 16 q 92 96 92 55 l 92 869 q 71 930 92 911 q 28 949 50 949 q 21 955 23 949 q 24 964 20 960 q 29 966 26 966 l 584 966 q 598 960 592 966 q 604 946 604 954 l 604 766 q 597 758 604 759 q 588 765 588 756 q 381 947 588 947 l 195 947 l 195 372 q 292 520 224 456 q 362 577 321 549 q 425 621 402 606 q 465 664 448 637 q 481 728 481 692 q 490 735 483 735 q 498 727 498 735 l 498 352 q 490 344 498 345 q 482 351 482 342 q 469 485 482 435 q 431 550 455 535 q 375 554 407 566 q 304 506 343 543 q 195 254 195 401 l 195 19 l 401 19 q 495 33 455 19 q 556 65 535 46 q 589 111 577 83 q 605 158 602 138 q 608 201 608 178 q 611 207 608 204 q 617 208 614 209 m 308 1076 q 300 1068 308 1076 q 269 1060 292 1060 q 231 1076 247 1060 q 215 1114 215 1092 q 231 1153 215 1137 q 269 1168 247 1168 q 308 1153 292 1168 q 323 1114 323 1137 q 308 1076 323 1092 m 464 1076 q 456 1068 464 1076 q 425 1060 448 1060 q 387 1076 403 1060 q 371 1114 371 1092 q 387 1153 371 1137 q 425 1168 403 1168 q 464 1153 448 1168 q 479 1114 479 1137 q 464 1076 479 1092 z "},"Ì":{"ha":286,"x_min":20,"x_max":265,"o":"m 258 16 q 265 8 265 16 q 257 0 265 0 l 28 0 q 20 8 20 0 q 26 16 20 16 q 70 35 49 16 q 91 96 91 54 l 91 869 q 70 931 91 911 q 26 950 48 950 q 20 958 20 950 q 28 966 20 966 l 257 966 q 265 958 265 966 q 258 950 265 950 q 215 931 237 950 q 194 869 194 911 l 194 96 q 215 35 194 54 q 258 16 236 16 m 192 1026 l 172 1026 l 37 1202 l 126 1202 l 192 1026 z "},"Í":{"ha":286,"x_min":20,"x_max":265,"o":"m 194 869 l 194 96 q 215 35 194 54 q 258 16 236 16 q 265 8 265 16 q 257 0 265 0 l 28 0 q 20 8 20 0 q 26 16 20 16 q 70 35 49 16 q 91 96 91 54 l 91 869 q 70 931 91 911 q 26 950 48 950 q 20 958 20 950 q 28 966 20 966 l 257 966 q 265 958 265 966 q 258 950 265 950 q 215 931 237 950 q 194 869 194 911 m 265 1202 l 132 1026 l 111 1026 l 176 1202 l 265 1202 z "},"Î":{"ha":286,"x_min":20,"x_max":265,"o":"m 258 16 q 265 8 265 16 q 257 0 265 0 l 28 0 q 20 8 20 0 q 26 16 20 16 q 70 35 49 16 q 91 96 91 54 l 91 869 q 70 931 91 911 q 26 950 48 950 q 20 958 20 950 q 28 966 20 966 l 257 966 q 265 958 265 966 q 258 950 265 950 q 215 931 237 950 q 194 869 194 911 l 194 96 q 215 35 194 54 q 258 16 236 16 m 142 1115 l 75 1026 l 54 1026 l 120 1202 l 165 1202 l 231 1026 l 210 1026 l 142 1115 z "},"Ï":{"ha":287,"x_min":11,"x_max":275,"o":"m 195 869 l 195 96 q 216 35 195 54 q 259 16 237 16 q 267 8 267 16 q 258 0 267 0 l 28 0 q 20 8 20 0 q 28 16 20 16 q 71 35 50 16 q 92 96 92 54 l 92 869 q 71 931 92 911 q 28 950 50 950 q 20 958 20 950 q 28 966 20 966 l 258 966 q 267 958 267 966 q 259 950 267 950 q 216 931 237 950 q 195 869 195 911 m 103 1076 q 95 1068 103 1076 q 65 1060 87 1060 q 27 1076 43 1060 q 11 1114 11 1092 q 27 1153 11 1137 q 65 1168 43 1168 q 103 1153 87 1168 q 119 1114 119 1137 q 103 1076 119 1092 m 259 1076 q 251 1068 259 1076 q 221 1060 243 1060 q 183 1076 199 1060 q 167 1114 167 1092 q 183 1153 167 1137 q 221 1168 199 1168 q 259 1153 243 1168 q 275 1114 275 1137 q 259 1076 275 1092 z "},"Ð":{"ha":831,"x_min":20,"x_max":802,"o":"m 378 980 q 557 943 477 980 q 691 839 638 905 q 773 682 745 773 q 802 483 802 591 q 773 284 802 375 q 691 126 745 193 q 557 23 638 60 q 378 -14 477 -14 q 222 -7 301 -14 q 117 0 144 0 l 54 0 q 45 8 45 0 q 52 16 45 16 q 96 35 75 16 q 117 96 117 54 l 117 448 l 27 448 q 20 456 20 448 l 20 511 q 27 518 20 518 l 117 518 l 117 869 q 95 931 117 911 q 52 950 74 950 q 45 958 45 950 q 54 966 45 966 l 117 966 q 222 973 144 966 q 378 980 301 980 m 355 5 q 510 42 442 5 q 618 145 577 79 q 680 297 659 212 q 700 483 700 382 q 680 669 700 584 q 618 820 659 754 q 510 924 577 886 q 355 961 442 961 q 220 953 301 961 l 220 518 l 336 518 q 343 511 343 518 l 343 456 q 336 448 343 448 l 220 448 l 220 14 q 355 5 308 5 z "},"Ñ":{"ha":836,"x_min":2,"x_max":832,"o":"m 824 966 q 830 963 827 966 q 831 956 832 960 q 824 950 830 950 q 798 944 814 950 q 763 926 782 937 q 732 893 745 914 q 719 846 719 872 l 719 13 q 715 4 719 8 q 706 0 711 0 q 696 5 699 0 l 136 817 l 136 119 q 145 80 136 98 q 167 51 154 62 q 195 31 180 39 q 222 20 210 23 q 241 16 235 16 q 248 12 246 16 q 247 3 250 7 q 240 0 245 0 l 11 0 q 5 3 7 0 q 3 10 2 6 q 11 16 4 16 q 48 26 26 17 q 94 61 71 36 q 116 119 116 86 l 116 954 q 120 962 116 958 q 129 966 123 966 q 139 960 136 966 l 699 149 l 699 846 q 690 885 699 867 q 668 915 681 903 q 640 935 655 926 q 612 947 625 943 q 593 950 600 950 q 587 955 589 950 q 588 963 585 959 q 595 966 590 966 l 824 966 m 347 1050 q 295 1160 295 1050 l 313 1160 q 346 1116 313 1116 q 419 1147 370 1116 q 489 1177 468 1177 q 528 1150 516 1177 q 540 1066 540 1123 l 522 1066 q 509 1098 522 1087 q 482 1109 497 1109 q 413 1080 458 1109 q 347 1050 368 1050 z "},"Ò":{"ha":905,"x_min":28,"x_max":876,"o":"m 453 980 q 629 941 549 980 q 763 834 709 902 q 846 676 817 767 q 876 483 876 586 q 846 289 876 380 q 763 131 817 199 q 629 25 709 64 q 453 -14 549 -14 q 228 53 326 -14 q 79 233 130 120 q 28 483 28 345 q 79 733 28 621 q 228 913 130 846 q 453 980 326 980 m 498 7 q 629 58 572 15 q 720 170 686 101 q 768 327 754 238 q 772 514 781 416 q 732 697 762 612 q 656 842 702 781 q 545 935 610 903 q 407 959 481 966 q 276 908 333 951 q 184 797 218 865 q 137 640 151 728 q 132 452 123 551 q 193 216 145 320 q 321 55 241 113 q 498 7 401 -2 m 448 1026 l 427 1026 l 294 1202 l 382 1202 l 448 1026 z "},"Ó":{"ha":905,"x_min":28,"x_max":876,"o":"m 453 980 q 629 941 549 980 q 763 834 709 902 q 846 676 817 767 q 876 483 876 586 q 846 289 876 380 q 763 131 817 199 q 629 25 709 64 q 453 -14 549 -14 q 228 53 326 -14 q 79 233 130 120 q 28 483 28 345 q 79 733 28 621 q 228 913 130 846 q 453 980 326 980 m 498 7 q 629 58 572 15 q 720 170 686 101 q 768 327 754 238 q 772 514 781 416 q 732 697 762 612 q 656 842 702 781 q 545 935 610 903 q 407 959 481 966 q 276 908 333 951 q 184 797 218 865 q 137 640 151 728 q 132 452 123 551 q 193 216 145 320 q 321 55 241 113 q 498 7 401 -2 m 606 1202 l 473 1026 l 452 1026 l 517 1202 l 606 1202 z "},"Ô":{"ha":905,"x_min":28,"x_max":876,"o":"m 453 980 q 629 941 549 980 q 763 834 709 902 q 846 676 817 767 q 876 483 876 586 q 846 289 876 380 q 763 131 817 199 q 629 25 709 64 q 453 -14 549 -14 q 228 53 326 -14 q 79 233 130 120 q 28 483 28 345 q 79 733 28 621 q 228 913 130 846 q 453 980 326 980 m 498 7 q 629 58 572 15 q 720 170 686 101 q 768 327 754 238 q 772 514 781 416 q 732 697 762 612 q 656 842 702 781 q 545 935 610 903 q 407 959 481 966 q 276 908 333 951 q 184 797 218 865 q 137 640 151 728 q 132 452 123 551 q 193 216 145 320 q 321 55 241 113 q 498 7 401 -2 m 427 1115 l 360 1026 l 339 1026 l 405 1202 l 450 1202 l 515 1026 l 495 1026 l 427 1115 z "},"Õ":{"ha":905,"x_min":28,"x_max":876,"o":"m 453 980 q 629 941 549 980 q 763 834 709 902 q 846 676 817 767 q 876 483 876 586 q 846 289 876 380 q 763 131 817 199 q 629 25 709 64 q 453 -14 549 -14 q 228 53 326 -14 q 79 233 130 120 q 28 483 28 345 q 79 733 28 621 q 228 913 130 846 q 453 980 326 980 m 498 7 q 629 58 572 15 q 720 170 686 101 q 768 327 754 238 q 772 514 781 416 q 732 697 762 612 q 656 842 702 781 q 545 935 610 903 q 407 959 481 966 q 276 908 333 951 q 184 797 218 865 q 137 640 151 728 q 132 452 123 551 q 193 216 145 320 q 321 55 241 113 q 498 7 401 -2 m 381 1050 q 330 1160 330 1050 l 348 1160 q 380 1116 348 1116 q 454 1147 406 1116 q 524 1177 503 1177 q 563 1150 551 1177 q 574 1066 574 1123 l 556 1066 q 544 1098 556 1087 q 517 1109 532 1109 q 448 1080 492 1109 q 381 1050 403 1050 z "},"Ö":{"ha":905,"x_min":28,"x_max":876,"o":"m 453 980 q 629 941 549 980 q 763 834 709 902 q 846 676 817 767 q 876 483 876 586 q 846 289 876 380 q 763 131 817 199 q 629 25 709 64 q 453 -14 549 -14 q 228 53 326 -14 q 79 233 130 120 q 28 483 28 345 q 79 733 28 621 q 228 913 130 846 q 453 980 326 980 m 498 7 q 629 58 572 15 q 720 170 686 101 q 768 327 754 238 q 772 514 781 416 q 732 697 762 612 q 656 842 702 781 q 545 935 610 903 q 407 959 481 966 q 276 908 333 951 q 184 797 218 865 q 137 640 151 728 q 132 452 123 551 q 193 216 145 320 q 321 55 241 113 q 498 7 401 -2 m 412 1076 q 404 1068 412 1076 q 374 1060 396 1060 q 335 1076 351 1060 q 319 1114 319 1092 q 335 1153 319 1137 q 374 1168 351 1168 q 412 1153 396 1168 q 428 1114 428 1137 q 412 1076 428 1092 m 568 1076 q 560 1068 568 1076 q 530 1060 552 1060 q 491 1076 507 1060 q 475 1114 475 1092 q 491 1153 475 1137 q 530 1168 507 1168 q 568 1153 552 1168 q 584 1114 584 1137 q 568 1076 584 1092 z "},"×":{"ha":359,"x_min":41,"x_max":319,"o":"m 229 483 l 313 398 q 313 388 319 393 l 275 349 q 264 349 269 344 l 179 433 l 95 349 q 84 349 90 344 l 45 388 q 45 398 41 393 l 130 483 l 45 568 q 45 578 41 572 l 84 617 q 95 617 90 623 l 179 532 l 264 617 q 275 617 269 623 l 313 578 q 313 568 319 572 l 229 483 z "},"Ø":{"ha":905,"x_min":28,"x_max":876,"o":"m 668 919 q 821 741 766 857 q 876 483 876 625 q 846 289 876 380 q 763 131 817 199 q 629 25 709 64 q 453 -14 549 -14 q 294 17 366 -14 l 289 5 q 281 0 287 0 l 230 0 q 222 4 225 0 q 222 12 220 7 l 236 47 q 83 226 138 111 q 28 483 28 342 q 79 733 28 621 q 228 913 130 846 q 453 980 326 980 q 610 949 536 980 l 615 960 q 623 966 617 966 l 673 966 q 681 962 678 966 q 682 954 684 958 l 668 919 m 262 109 l 592 905 q 407 959 508 969 q 276 908 333 951 q 184 797 218 865 q 137 640 151 728 q 132 452 123 551 q 176 259 142 347 q 262 109 209 170 m 498 7 q 629 58 572 15 q 720 170 686 101 q 768 327 754 238 q 772 514 781 416 q 728 708 762 619 q 642 858 694 797 l 312 62 q 498 7 395 -3 z "},"Ù":{"ha":806,"x_min":14,"x_max":796,"o":"m 788 966 q 796 958 796 966 q 789 950 796 950 q 732 902 752 950 q 712 768 712 853 l 712 305 q 637 63 712 140 q 405 -14 562 -14 q 85 323 85 -14 l 85 869 q 64 931 85 911 q 21 950 43 950 q 14 958 14 950 q 22 966 14 966 l 252 966 q 260 958 260 966 q 253 950 260 950 q 210 931 231 950 q 189 869 189 911 l 189 323 q 253 85 189 166 q 438 5 317 5 q 538 21 493 5 q 618 73 583 38 q 673 166 654 107 q 693 305 693 226 l 693 768 q 673 902 693 853 q 616 950 653 950 q 609 958 609 950 q 617 966 609 966 l 788 966 m 442 1026 l 421 1026 l 288 1202 l 376 1202 l 442 1026 z "},"Ú":{"ha":806,"x_min":14,"x_max":796,"o":"m 788 966 q 796 958 796 966 q 789 950 796 950 q 732 902 752 950 q 712 768 712 853 l 712 305 q 637 63 712 140 q 405 -14 562 -14 q 85 323 85 -14 l 85 869 q 64 931 85 911 q 21 950 43 950 q 14 958 14 950 q 22 966 14 966 l 252 966 q 260 958 260 966 q 253 950 260 950 q 210 931 231 950 q 189 869 189 911 l 189 323 q 253 85 189 166 q 438 5 317 5 q 538 21 493 5 q 618 73 583 38 q 673 166 654 107 q 693 305 693 226 l 693 768 q 673 902 693 853 q 616 950 653 950 q 609 958 609 950 q 617 966 609 966 l 788 966 m 601 1202 l 467 1026 l 446 1026 l 512 1202 l 601 1202 z "},"Û":{"ha":806,"x_min":14,"x_max":796,"o":"m 788 966 q 796 958 796 966 q 789 950 796 950 q 732 902 752 950 q 712 768 712 853 l 712 305 q 637 63 712 140 q 405 -14 562 -14 q 85 323 85 -14 l 85 869 q 64 931 85 911 q 21 950 43 950 q 14 958 14 950 q 22 966 14 966 l 252 966 q 260 958 260 966 q 253 950 260 950 q 210 931 231 950 q 189 869 189 911 l 189 323 q 253 85 189 166 q 438 5 317 5 q 538 21 493 5 q 618 73 583 38 q 673 166 654 107 q 693 305 693 226 l 693 768 q 673 902 693 853 q 616 950 653 950 q 609 958 609 950 q 617 966 609 966 l 788 966 m 437 1115 l 370 1026 l 349 1026 l 415 1202 l 460 1202 l 526 1026 l 505 1026 l 437 1115 z "},"Ü":{"ha":806,"x_min":14,"x_max":796,"o":"m 788 966 q 796 958 796 966 q 789 950 796 950 q 732 902 752 950 q 712 768 712 853 l 712 305 q 637 63 712 140 q 405 -14 562 -14 q 85 323 85 -14 l 85 869 q 64 931 85 911 q 21 950 43 950 q 14 958 14 950 q 22 966 14 966 l 252 966 q 260 958 260 966 q 253 950 260 950 q 210 931 231 950 q 189 869 189 911 l 189 323 q 253 85 189 166 q 438 5 317 5 q 538 21 493 5 q 618 73 583 38 q 673 166 654 107 q 693 305 693 226 l 693 768 q 673 902 693 853 q 616 950 653 950 q 609 958 609 950 q 617 966 609 966 l 788 966 m 403 1076 q 395 1068 403 1076 q 365 1060 387 1060 q 327 1076 342 1060 q 311 1114 311 1092 q 327 1153 311 1137 q 365 1168 342 1168 q 403 1153 387 1168 q 419 1114 419 1137 q 403 1076 419 1092 m 558 1076 q 551 1068 558 1076 q 520 1060 543 1060 q 482 1076 498 1060 q 466 1114 466 1092 q 482 1153 466 1137 q 520 1168 498 1168 q 558 1153 543 1168 q 574 1114 574 1137 q 558 1076 574 1092 z "},"Ý":{"ha":734,"x_min":-14,"x_max":751,"o":"m 743 966 q 751 958 751 966 q 744 950 751 950 q 672 924 711 950 q 614 845 634 899 l 404 286 l 404 96 q 425 35 404 54 q 469 16 446 16 q 475 8 475 16 q 468 0 475 0 l 238 0 q 230 8 230 0 q 237 16 230 16 q 280 35 259 16 q 301 96 301 54 l 301 287 l 81 873 q 40 933 65 916 q -7 950 15 950 q -14 958 -14 950 q -6 966 -14 966 l 224 966 q 232 958 232 966 q 225 950 232 950 q 187 930 203 950 q 184 871 170 911 l 395 315 l 594 843 q 600 894 604 873 q 580 927 596 915 q 547 945 564 940 q 513 950 530 950 q 505 958 505 950 q 513 966 505 966 l 743 966 m 534 1202 l 400 1026 l 379 1026 l 445 1202 l 534 1202 z "},"Þ":{"ha":652,"x_min":20,"x_max":642,"o":"m 353 751 q 484 733 427 751 q 574 681 541 714 q 625 605 608 648 q 642 513 642 563 q 591 368 642 432 q 443 284 540 304 q 320 271 381 272 q 195 273 258 270 l 195 31 q 186 9 195 18 q 164 0 177 0 l 29 0 q 23 3 26 0 q 21 9 20 5 q 29 16 22 16 q 72 36 52 17 q 92 96 92 55 l 92 869 q 71 930 92 911 q 28 949 50 949 q 21 954 23 949 q 23 963 20 959 q 29 966 25 966 l 164 966 q 186 957 177 966 q 195 935 195 947 l 195 744 q 353 751 283 751 m 337 293 q 431 311 391 293 q 494 361 471 330 q 528 431 517 393 q 539 513 539 469 q 527 594 539 556 q 490 664 515 633 q 425 713 466 695 q 330 732 384 732 q 195 724 277 732 l 195 293 l 337 293 z "},"ß":{"ha":769,"x_min":13,"x_max":753,"o":"m 296 437 q 321 410 296 420 q 386 393 346 399 q 475 380 427 387 q 573 362 524 374 q 662 331 622 349 q 728 277 703 312 q 753 193 753 241 q 685 47 753 109 q 507 -14 616 -14 q 380 4 443 -14 q 279 56 318 23 q 270 76 270 63 l 270 241 q 274 248 270 246 q 282 248 278 250 q 286 241 286 246 q 294 174 286 208 q 319 110 302 141 q 362 55 337 79 q 426 17 388 31 q 509 3 464 3 q 637 44 594 3 q 681 138 681 85 q 658 219 681 185 q 599 270 635 252 q 519 300 563 288 q 432 322 475 313 q 352 345 388 332 q 293 379 315 357 q 270 435 270 401 q 284 476 270 457 q 322 510 299 495 q 373 541 345 526 q 429 576 401 557 q 480 620 457 596 q 518 680 503 644 q 532 759 532 715 q 480 909 532 850 q 322 968 427 968 q 227 926 265 968 q 189 812 189 883 l 189 45 q 176 16 189 28 q 147 3 164 3 l 22 3 q 14 12 13 3 q 22 20 16 20 q 65 40 44 20 q 85 100 85 59 l 85 783 q 105 872 85 833 q 157 934 124 911 q 229 968 189 957 q 313 980 269 980 q 546 919 458 980 q 635 759 635 857 q 616 662 635 704 q 568 594 597 619 q 502 550 538 568 q 429 519 465 531 q 363 496 393 507 q 314 471 333 486 q 296 437 296 456 z "},"à":{"ha":625,"x_min":26,"x_max":613,"o":"m 608 85 q 606 74 613 78 q 500 9 525 24 q 463 1 477 -4 q 441 23 448 7 q 435 62 435 39 l 435 138 q 184 -14 334 -14 q 72 28 117 -14 q 26 133 26 70 q 49 210 26 176 q 107 268 71 245 q 187 312 143 292 q 274 352 231 332 q 353 392 317 371 q 412 444 389 414 q 434 512 434 475 q 431 565 434 544 q 417 608 427 587 q 387 639 408 629 q 332 649 366 649 q 169 564 243 649 q 95 369 95 479 q 92 363 95 366 q 87 361 90 361 q 79 369 79 361 l 79 541 q 99 576 79 563 q 120 590 102 578 q 147 608 137 602 q 177 625 157 614 q 217 643 198 637 q 261 657 236 650 q 316 667 286 664 q 378 671 345 671 q 495 629 453 671 q 537 512 537 588 l 537 235 q 544 94 537 117 q 578 77 552 67 q 597 88 586 81 q 608 85 605 91 m 435 166 l 435 453 q 384 396 416 422 q 319 353 352 370 q 252 316 287 337 q 191 274 217 295 q 147 219 164 254 q 130 141 130 185 q 162 59 130 87 q 247 31 195 31 q 348 67 297 31 q 435 166 399 104 m 359 717 l 338 717 l 205 892 l 293 892 l 359 717 z "},"á":{"ha":625,"x_min":26,"x_max":613,"o":"m 608 85 q 606 74 613 78 q 500 9 525 24 q 463 1 477 -4 q 441 23 448 7 q 435 62 435 39 l 435 138 q 184 -14 334 -14 q 72 28 117 -14 q 26 133 26 70 q 49 210 26 176 q 107 268 71 245 q 187 312 143 292 q 274 352 231 332 q 353 392 317 371 q 412 444 389 414 q 434 512 434 475 q 431 565 434 544 q 417 608 427 587 q 387 639 408 629 q 332 649 366 649 q 169 564 243 649 q 95 369 95 479 q 92 363 95 366 q 87 361 90 361 q 79 369 79 361 l 79 541 q 99 576 79 563 q 120 590 102 578 q 147 608 137 602 q 177 625 157 614 q 217 643 198 637 q 261 657 236 650 q 316 667 286 664 q 378 671 345 671 q 495 629 453 671 q 537 512 537 588 l 537 235 q 544 94 537 117 q 578 77 552 67 q 597 88 586 81 q 608 85 605 91 m 435 166 l 435 453 q 384 396 416 422 q 319 353 352 370 q 252 316 287 337 q 191 274 217 295 q 147 219 164 254 q 130 141 130 185 q 162 59 130 87 q 247 31 195 31 q 348 67 297 31 q 435 166 399 104 m 490 892 l 357 717 l 336 717 l 401 892 l 490 892 z "},"â":{"ha":625,"x_min":26,"x_max":613,"o":"m 608 85 q 606 74 613 78 q 500 9 525 24 q 463 1 477 -4 q 441 23 448 7 q 435 62 435 39 l 435 138 q 184 -14 334 -14 q 72 28 117 -14 q 26 133 26 70 q 49 210 26 176 q 107 268 71 245 q 187 312 143 292 q 274 352 231 332 q 353 392 317 371 q 412 444 389 414 q 434 512 434 475 q 431 565 434 544 q 417 608 427 587 q 387 639 408 629 q 332 649 366 649 q 169 564 243 649 q 95 369 95 479 q 92 363 95 366 q 87 361 90 361 q 79 369 79 361 l 79 541 q 99 576 79 563 q 120 590 102 578 q 147 608 137 602 q 177 625 157 614 q 217 643 198 637 q 261 657 236 650 q 316 667 286 664 q 378 671 345 671 q 495 629 453 671 q 537 512 537 588 l 537 235 q 544 94 537 117 q 578 77 552 67 q 597 88 586 81 q 608 85 605 91 m 435 166 l 435 453 q 384 396 416 422 q 319 353 352 370 q 252 316 287 337 q 191 274 217 295 q 147 219 164 254 q 130 141 130 185 q 162 59 130 87 q 247 31 195 31 q 348 67 297 31 q 435 166 399 104 m 346 806 l 279 717 l 258 717 l 323 892 l 369 892 l 435 717 l 414 717 l 346 806 z "},"ã":{"ha":625,"x_min":26,"x_max":613,"o":"m 608 85 q 606 74 613 78 q 500 9 525 24 q 463 1 477 -4 q 441 23 448 7 q 435 62 435 39 l 435 138 q 184 -14 334 -14 q 72 28 117 -14 q 26 133 26 70 q 49 210 26 176 q 107 268 71 245 q 187 312 143 292 q 274 352 231 332 q 353 392 317 371 q 412 444 389 414 q 434 512 434 475 q 431 565 434 544 q 417 608 427 587 q 387 639 408 629 q 332 649 366 649 q 169 564 243 649 q 95 369 95 479 q 92 363 95 366 q 87 361 90 361 q 79 369 79 361 l 79 541 q 99 576 79 563 q 120 590 102 578 q 147 608 137 602 q 177 625 157 614 q 217 643 198 637 q 261 657 236 650 q 316 667 286 664 q 378 671 345 671 q 495 629 453 671 q 537 512 537 588 l 537 235 q 544 94 537 117 q 578 77 552 67 q 597 88 586 81 q 608 85 605 91 m 435 166 l 435 453 q 384 396 416 422 q 319 353 352 370 q 252 316 287 337 q 191 274 217 295 q 147 219 164 254 q 130 141 130 185 q 162 59 130 87 q 247 31 195 31 q 348 67 297 31 q 435 166 399 104 m 248 741 q 195 851 195 741 l 214 851 q 247 807 214 807 q 320 838 271 807 q 389 868 369 868 q 428 841 416 868 q 440 757 440 814 l 422 757 q 410 789 422 778 q 382 800 397 800 q 314 770 358 800 q 248 741 269 741 z "},"ä":{"ha":625,"x_min":26,"x_max":613,"o":"m 608 85 q 606 74 613 78 q 500 9 525 24 q 463 1 477 -4 q 441 23 448 7 q 435 62 435 39 l 435 138 q 184 -14 334 -14 q 72 28 117 -14 q 26 133 26 70 q 49 210 26 176 q 107 268 71 245 q 187 312 143 292 q 274 352 231 332 q 353 392 317 371 q 412 444 389 414 q 434 512 434 475 q 431 565 434 544 q 417 608 427 587 q 387 639 408 629 q 332 649 366 649 q 169 564 243 649 q 95 369 95 479 q 92 363 95 366 q 87 361 90 361 q 79 369 79 361 l 79 541 q 99 576 79 563 q 120 590 102 578 q 147 608 137 602 q 177 625 157 614 q 217 643 198 637 q 261 657 236 650 q 316 667 286 664 q 378 671 345 671 q 495 629 453 671 q 537 512 537 588 l 537 235 q 544 94 537 117 q 578 77 552 67 q 597 88 586 81 q 608 85 605 91 m 435 166 l 435 453 q 384 396 416 422 q 319 353 352 370 q 252 316 287 337 q 191 274 217 295 q 147 219 164 254 q 130 141 130 185 q 162 59 130 87 q 247 31 195 31 q 348 67 297 31 q 435 166 399 104 m 278 767 q 270 759 278 767 q 240 751 262 751 q 202 767 218 751 q 186 805 186 783 q 202 843 186 827 q 240 859 218 859 q 278 843 262 859 q 294 805 294 827 q 278 767 294 783 m 434 767 q 426 759 434 767 q 396 751 418 751 q 358 767 374 751 q 342 805 342 783 q 358 843 342 827 q 396 859 374 859 q 434 843 418 859 q 450 805 450 827 q 434 767 450 783 z "},"å":{"ha":625,"x_min":26,"x_max":613,"o":"m 608 85 q 606 74 613 78 q 500 9 525 24 q 463 1 477 -4 q 441 23 448 7 q 435 62 435 39 l 435 138 q 184 -14 334 -14 q 72 28 117 -14 q 26 133 26 70 q 49 210 26 176 q 107 268 71 245 q 187 312 143 292 q 274 352 231 332 q 353 392 317 371 q 412 444 389 414 q 434 512 434 475 q 431 565 434 544 q 417 608 427 587 q 387 639 408 629 q 332 649 366 649 q 169 564 243 649 q 95 369 95 479 q 92 363 95 366 q 87 361 90 361 q 79 369 79 361 l 79 541 q 99 576 79 563 q 120 590 102 578 q 147 608 137 602 q 177 625 157 614 q 217 643 198 637 q 261 657 236 650 q 316 667 286 664 q 378 671 345 671 q 495 629 453 671 q 537 512 537 588 l 537 235 q 544 94 537 117 q 578 77 552 67 q 597 88 586 81 q 608 85 605 91 m 435 166 l 435 453 q 384 396 416 422 q 319 353 352 370 q 252 316 287 337 q 191 274 217 295 q 147 219 164 254 q 130 141 130 185 q 162 59 130 87 q 247 31 195 31 q 348 67 297 31 q 435 166 399 104 m 389 745 q 377 733 389 745 q 329 721 365 721 q 268 746 293 721 q 243 805 243 770 q 268 864 243 840 q 329 889 293 889 q 389 865 365 889 q 414 805 414 840 q 389 745 414 770 m 358 853 q 352 863 358 853 q 329 873 346 873 q 300 853 312 873 q 288 805 288 833 q 300 756 288 777 q 329 736 312 736 q 358 756 346 736 q 370 805 370 777 q 358 853 370 833 z "},"æ":{"ha":997,"x_min":26,"x_max":982,"o":"m 977 157 q 978 144 982 153 q 879 32 945 79 q 723 -14 813 -14 q 560 37 629 -14 q 458 174 490 87 q 429 130 456 170 q 184 -14 329 -14 q 72 28 117 -14 q 26 133 26 70 q 49 210 26 176 q 107 268 71 245 q 187 312 143 292 q 274 352 231 332 q 353 392 317 371 q 412 444 389 414 q 434 512 434 475 q 431 565 434 544 q 417 608 427 587 q 387 639 408 629 q 332 649 366 649 q 169 564 243 649 q 95 369 95 479 q 92 363 95 366 q 87 361 90 361 q 79 369 79 361 l 79 541 q 99 576 79 563 q 120 590 102 578 q 147 608 137 602 q 177 625 157 614 q 217 643 198 637 q 261 657 236 650 q 316 667 286 664 q 378 671 345 671 q 474 646 435 671 q 528 574 513 621 q 630 646 572 621 q 747 671 688 671 q 892 632 844 671 q 939 538 939 593 q 921 469 939 500 q 867 414 903 438 q 786 371 831 389 q 676 333 741 352 q 578 289 608 313 q 547 227 548 264 q 631 80 564 135 q 777 24 698 24 q 885 60 832 24 q 966 152 937 96 q 977 157 970 160 m 435 166 l 435 453 q 384 396 416 422 q 319 353 352 370 q 252 316 287 337 q 191 274 217 295 q 147 219 164 254 q 130 141 130 185 q 162 59 130 87 q 247 31 195 31 q 348 67 297 31 q 435 166 399 104 m 537 328 q 541 260 537 293 q 673 347 558 314 q 808 415 763 373 q 852 526 852 457 q 842 585 852 557 q 804 633 831 612 q 734 654 776 654 q 592 564 648 654 q 537 328 537 473 z "},"ç":{"ha":597,"x_min":31,"x_max":580,"o":"m 573 157 q 576 144 580 153 q 494 45 548 89 q 369 -10 441 2 q 384 -54 384 -29 q 365 -102 384 -83 q 312 -130 346 -122 q 408 -163 374 -135 q 442 -237 442 -191 q 427 -298 442 -271 q 388 -341 412 -326 q 339 -364 364 -356 q 290 -372 313 -372 q 203 -352 241 -372 q 165 -309 165 -333 l 165 -203 q 168 -199 165 -199 q 171 -203 171 -199 q 177 -245 171 -221 q 197 -296 184 -269 q 235 -340 210 -322 q 293 -357 260 -357 q 361 -331 334 -357 q 389 -258 389 -304 q 358 -173 389 -211 q 272 -134 326 -136 q 269 -130 269 -134 q 272 -127 269 -127 q 324 -106 305 -126 q 343 -54 343 -87 q 333 -14 343 -32 q 326 -14 331 -14 q 319 -14 321 -14 q 111 79 191 -14 q 31 315 31 172 q 56 458 31 390 q 122 571 82 526 q 213 644 163 617 q 312 671 263 671 q 519 601 433 671 q 528 581 528 593 l 528 414 q 520 406 528 406 q 513 414 513 406 q 508 460 513 433 q 489 522 503 488 q 457 586 476 557 q 404 634 437 614 q 331 654 371 654 q 189 564 244 654 q 134 328 134 473 q 200 109 134 194 q 374 24 267 24 q 483 59 436 24 q 560 153 530 94 q 573 157 564 161 z "},"è":{"ha":593,"x_min":31,"x_max":578,"o":"m 573 157 q 574 144 578 153 q 475 32 541 79 q 319 -14 410 -14 q 111 79 191 -14 q 31 315 31 172 q 49 443 31 383 q 98 543 67 502 q 169 613 129 584 q 254 657 210 643 q 342 671 298 671 q 488 632 440 671 q 535 538 535 593 q 517 469 535 500 q 464 414 500 438 q 382 371 427 389 q 273 333 337 352 q 174 289 204 313 q 142 227 144 264 q 227 80 160 135 q 374 24 294 24 q 481 60 429 24 q 562 152 533 96 q 573 157 566 160 m 134 328 q 137 260 134 288 q 269 347 154 314 q 404 415 359 373 q 448 526 448 457 q 438 585 448 557 q 400 633 428 612 q 331 654 372 654 q 189 564 244 654 q 134 328 134 473 m 351 717 l 330 717 l 196 892 l 285 892 l 351 717 z "},"é":{"ha":593,"x_min":31,"x_max":578,"o":"m 573 157 q 574 144 578 153 q 475 32 541 79 q 319 -14 410 -14 q 111 79 191 -14 q 31 315 31 172 q 49 443 31 383 q 98 543 67 502 q 169 613 129 584 q 254 657 210 643 q 342 671 298 671 q 488 632 440 671 q 535 538 535 593 q 517 469 535 500 q 464 414 500 438 q 382 371 427 389 q 273 333 337 352 q 174 289 204 313 q 142 227 144 264 q 227 80 160 135 q 374 24 294 24 q 481 60 429 24 q 562 152 533 96 q 573 157 566 160 m 134 328 q 137 260 134 288 q 269 347 154 314 q 404 415 359 373 q 448 526 448 457 q 438 585 448 557 q 400 633 428 612 q 331 654 372 654 q 189 564 244 654 q 134 328 134 473 m 496 892 l 363 717 l 342 717 l 408 892 l 496 892 z "},"ê":{"ha":593,"x_min":31,"x_max":578,"o":"m 573 157 q 574 144 578 153 q 475 32 541 79 q 319 -14 410 -14 q 111 79 191 -14 q 31 315 31 172 q 49 443 31 383 q 98 543 67 502 q 169 613 129 584 q 254 657 210 643 q 342 671 298 671 q 488 632 440 671 q 535 538 535 593 q 517 469 535 500 q 464 414 500 438 q 382 371 427 389 q 273 333 337 352 q 174 289 204 313 q 142 227 144 264 q 227 80 160 135 q 374 24 294 24 q 481 60 429 24 q 562 152 533 96 q 573 157 566 160 m 134 328 q 137 260 134 288 q 269 347 154 314 q 404 415 359 373 q 448 526 448 457 q 438 585 448 557 q 400 633 428 612 q 331 654 372 654 q 189 564 244 654 q 134 328 134 473 m 333 806 l 265 717 l 245 717 l 311 892 l 355 892 l 421 717 l 400 717 l 333 806 z "},"ë":{"ha":593,"x_min":31,"x_max":578,"o":"m 573 157 q 574 144 578 153 q 475 32 541 79 q 319 -14 410 -14 q 111 79 191 -14 q 31 315 31 172 q 49 443 31 383 q 98 543 67 502 q 169 613 129 584 q 254 657 210 643 q 342 671 298 671 q 488 632 440 671 q 535 538 535 593 q 517 469 535 500 q 464 414 500 438 q 382 371 427 389 q 273 333 337 352 q 174 289 204 313 q 142 227 144 264 q 227 80 160 135 q 374 24 294 24 q 481 60 429 24 q 562 152 533 96 q 573 157 566 160 m 134 328 q 137 260 134 288 q 269 347 154 314 q 404 415 359 373 q 448 526 448 457 q 438 585 448 557 q 400 633 428 612 q 331 654 372 654 q 189 564 244 654 q 134 328 134 473 m 290 767 q 282 759 290 767 q 252 751 274 751 q 213 767 229 751 q 197 805 197 783 q 213 843 197 827 q 252 859 229 859 q 290 843 274 859 q 306 805 306 827 q 290 767 306 783 m 446 767 q 438 759 446 767 q 408 751 430 751 q 369 767 385 751 q 353 805 353 783 q 369 843 353 827 q 408 859 385 859 q 446 843 430 859 q 462 805 462 827 q 446 767 462 783 z "},"ì":{"ha":280,"x_min":20,"x_max":265,"o":"m 258 16 q 265 8 265 16 q 257 0 265 0 l 28 0 q 20 8 20 0 q 26 16 20 16 q 70 34 49 16 q 91 96 91 52 l 91 422 q 84 562 91 538 q 50 579 76 589 q 31 568 42 576 q 23 570 26 567 q 20 576 20 572 q 22 583 20 581 q 128 647 103 632 q 165 655 151 661 q 187 634 180 650 q 194 594 194 618 l 194 96 q 215 35 194 54 q 258 16 236 16 m 193 717 l 172 717 l 39 892 l 127 892 l 193 717 z "},"í":{"ha":280,"x_min":20,"x_max":265,"o":"m 258 16 q 265 8 265 16 q 257 0 265 0 l 28 0 q 20 8 20 0 q 26 16 20 16 q 70 34 49 16 q 91 96 91 52 l 91 422 q 84 562 91 538 q 50 579 76 589 q 31 568 42 576 q 23 570 26 567 q 20 576 20 572 q 22 583 20 581 q 128 647 103 632 q 165 655 151 661 q 187 634 180 650 q 194 594 194 618 l 194 96 q 215 35 194 54 q 258 16 236 16 m 220 892 l 86 717 l 65 717 l 131 892 l 220 892 z "},"î":{"ha":280,"x_min":20,"x_max":265,"o":"m 258 16 q 265 8 265 16 q 257 0 265 0 l 28 0 q 20 8 20 0 q 26 16 20 16 q 70 34 49 16 q 91 96 91 52 l 91 422 q 84 562 91 538 q 50 579 76 589 q 31 568 42 576 q 23 570 26 567 q 20 576 20 572 q 22 583 20 581 q 128 647 103 632 q 165 655 151 661 q 187 634 180 650 q 194 594 194 618 l 194 96 q 215 35 194 54 q 258 16 236 16 m 142 806 l 75 717 l 54 717 l 120 892 l 165 892 l 231 717 l 210 717 l 142 806 z "},"ï":{"ha":279,"x_min":0,"x_max":264,"o":"m 257 16 q 264 8 264 16 q 256 0 264 0 l 26 0 q 18 8 18 0 q 26 16 18 16 q 69 34 48 16 q 90 96 90 52 l 90 422 q 83 563 90 539 q 47 578 75 590 q 29 568 39 574 q 22 570 25 567 q 18 576 18 572 q 21 583 18 580 q 127 647 102 632 q 164 655 150 661 q 186 634 179 650 q 193 594 193 618 l 193 96 q 214 35 193 54 q 257 16 235 16 m 93 767 q 85 759 93 767 q 54 751 77 751 q 16 767 32 751 q 0 805 0 783 q 16 843 0 827 q 54 859 32 859 q 93 843 77 859 q 109 805 109 827 q 93 767 109 783 m 249 767 q 241 759 249 767 q 210 751 233 751 q 172 767 188 751 q 156 805 156 783 q 172 843 156 827 q 210 859 188 859 q 249 843 233 859 q 264 805 264 827 q 249 767 264 783 z "},"ð":{"ha":806,"x_min":31,"x_max":770,"o":"m 565 932 q 770 390 770 808 q 670 97 770 208 q 400 -14 570 -14 q 131 79 231 -14 q 31 328 31 172 q 51 456 31 397 q 111 559 71 514 q 216 629 151 604 q 363 654 281 654 q 556 594 473 654 q 667 425 640 534 q 523 891 659 755 l 307 676 q 298 671 305 671 l 248 671 q 241 674 243 671 q 240 683 238 678 l 483 924 q 369 961 428 961 q 257 932 308 961 q 175 859 206 904 q 128 764 144 814 q 111 664 111 713 q 103 657 111 657 q 95 665 95 657 l 95 863 q 120 897 95 877 q 184 935 145 917 q 276 967 222 954 q 379 980 329 980 q 515 956 454 980 l 611 1052 q 619 1057 613 1057 l 670 1057 q 677 1053 675 1057 q 678 1044 680 1049 l 565 932 m 400 5 q 581 93 510 5 q 664 329 651 182 l 664 328 q 586 525 664 446 q 386 605 507 605 q 249 565 307 605 q 162 464 190 526 q 134 328 134 402 q 205 93 134 180 q 400 5 277 5 z "},"ñ":{"ha":658,"x_min":20,"x_max":642,"o":"m 631 88 q 639 87 635 90 q 642 80 642 84 q 640 74 642 76 q 533 9 558 24 q 496 1 511 -4 q 475 23 481 7 q 468 62 468 39 l 468 512 q 401 633 468 633 q 323 596 362 633 q 256 508 283 559 q 211 405 229 457 q 194 319 194 353 l 194 96 q 215 35 194 54 q 258 16 236 16 q 265 8 265 16 q 257 0 265 0 l 28 0 q 20 8 20 0 q 26 16 20 16 q 70 35 49 16 q 91 96 91 54 l 91 422 q 84 562 91 539 q 50 579 76 589 q 31 568 42 576 q 23 570 26 567 q 20 576 20 572 q 22 583 20 581 q 128 647 103 632 q 165 655 151 661 q 187 634 180 650 q 194 594 194 618 l 194 410 q 247 532 212 473 q 333 630 282 590 q 435 671 383 671 q 536 630 500 671 q 571 512 571 589 l 571 235 q 578 94 571 117 q 612 77 586 67 q 631 88 620 81 m 291 741 q 239 851 239 741 l 258 851 q 290 807 258 807 q 363 838 315 807 q 433 868 412 868 q 472 841 460 868 q 484 757 484 814 l 465 757 q 453 789 465 778 q 426 800 441 800 q 357 770 401 800 q 291 741 313 741 z "},"ò":{"ha":687,"x_min":29,"x_max":657,"o":"m 183 625 q 219 648 183 625 q 343 671 255 671 q 504 625 431 671 q 616 500 576 578 q 657 328 657 422 q 616 156 657 235 q 504 32 576 78 q 343 -14 431 -14 q 183 32 255 -14 q 70 156 111 78 q 29 328 29 235 q 70 500 29 422 q 183 625 111 578 m 263 40 q 289 21 263 40 q 374 7 315 1 q 477 60 433 12 q 542 184 522 108 q 553 349 562 260 q 511 508 545 437 q 424 617 476 579 q 312 650 371 656 q 209 597 253 645 q 145 472 165 549 q 133 308 125 396 q 176 149 141 220 q 263 40 210 78 m 354 717 l 333 717 l 199 892 l 288 892 l 354 717 z "},"ó":{"ha":687,"x_min":29,"x_max":657,"o":"m 183 625 q 219 648 183 625 q 343 671 255 671 q 504 625 431 671 q 616 500 576 578 q 657 328 657 422 q 616 156 657 235 q 504 32 576 78 q 343 -14 431 -14 q 183 32 255 -14 q 70 156 111 78 q 29 328 29 235 q 70 500 29 422 q 183 625 111 578 m 263 40 q 289 21 263 40 q 374 7 315 1 q 477 60 433 12 q 542 184 522 108 q 553 349 562 260 q 511 508 545 437 q 424 617 476 579 q 312 650 371 656 q 209 597 253 645 q 145 472 165 549 q 133 308 125 396 q 176 149 141 220 q 263 40 210 78 m 498 892 l 364 717 l 343 717 l 409 892 l 498 892 z "},"ô":{"ha":687,"x_min":29,"x_max":657,"o":"m 183 625 q 219 648 183 625 q 343 671 255 671 q 504 625 431 671 q 616 500 576 578 q 657 328 657 422 q 616 156 657 235 q 504 32 576 78 q 343 -14 431 -14 q 183 32 255 -14 q 70 156 111 78 q 29 328 29 235 q 70 500 29 422 q 183 625 111 578 m 263 40 q 289 21 263 40 q 374 7 315 1 q 477 60 433 12 q 542 184 522 108 q 553 349 562 260 q 511 508 545 437 q 424 617 476 579 q 312 650 371 656 q 209 597 253 645 q 145 472 165 549 q 133 308 125 396 q 176 149 141 220 q 263 40 210 78 m 343 806 l 276 717 l 255 717 l 321 892 l 366 892 l 431 717 l 411 717 l 343 806 z "},"õ":{"ha":687,"x_min":29,"x_max":657,"o":"m 183 625 q 219 648 183 625 q 343 671 255 671 q 504 625 431 671 q 616 500 576 578 q 657 328 657 422 q 616 156 657 235 q 504 32 576 78 q 343 -14 431 -14 q 183 32 255 -14 q 70 156 111 78 q 29 328 29 235 q 70 500 29 422 q 183 625 111 578 m 263 40 q 289 21 263 40 q 374 7 315 1 q 477 60 433 12 q 542 184 522 108 q 553 349 562 260 q 511 508 545 437 q 424 617 476 579 q 312 650 371 656 q 209 597 253 645 q 145 472 165 549 q 133 308 125 396 q 176 149 141 220 q 263 40 210 78 m 273 741 q 221 851 221 741 l 239 851 q 272 807 239 807 q 346 838 297 807 q 415 868 395 868 q 454 841 442 868 q 466 757 466 814 l 448 757 q 435 789 448 778 q 408 800 423 800 q 339 770 384 800 q 273 741 294 741 z "},"ö":{"ha":687,"x_min":29,"x_max":657,"o":"m 183 625 q 219 648 183 625 q 343 671 255 671 q 504 625 431 671 q 616 500 576 578 q 657 328 657 422 q 616 156 657 235 q 504 32 576 78 q 343 -14 431 -14 q 183 32 255 -14 q 70 156 111 78 q 29 328 29 235 q 70 500 29 422 q 183 625 111 578 m 263 40 q 289 21 263 40 q 374 7 315 1 q 477 60 433 12 q 542 184 522 108 q 553 349 562 260 q 511 508 545 437 q 424 617 476 579 q 312 650 371 656 q 209 597 253 645 q 145 472 165 549 q 133 308 125 396 q 176 149 141 220 q 263 40 210 78 m 303 767 q 296 759 303 767 q 265 751 288 751 q 227 767 243 751 q 211 805 211 783 q 227 843 211 827 q 265 859 243 859 q 303 843 288 859 q 319 805 319 827 q 303 767 319 783 m 459 767 q 451 759 459 767 q 421 751 444 751 q 383 767 399 751 q 367 805 367 783 q 383 843 367 827 q 421 859 399 859 q 459 843 444 859 q 475 805 475 827 q 459 767 475 783 z "},"÷":{"ha":394,"x_min":35,"x_max":359,"o":"m 351 518 q 359 511 359 518 l 359 456 q 351 448 359 448 l 42 448 q 35 456 35 448 l 35 511 q 42 518 35 518 l 351 518 m 233 587 q 226 579 233 587 q 197 572 218 572 q 160 587 175 572 q 145 623 145 602 q 160 660 145 644 q 197 675 175 675 q 233 660 218 675 q 248 623 248 644 q 233 587 248 602 m 160 379 q 168 386 160 379 q 197 394 175 394 q 233 379 218 394 q 248 342 248 363 q 233 306 248 321 q 197 291 218 291 q 160 306 175 291 q 145 342 145 321 q 160 379 145 363 z "},"ø":{"ha":687,"x_min":29,"x_max":657,"o":"m 502 626 q 615 502 574 581 q 657 328 657 423 q 616 156 657 235 q 504 32 576 78 q 343 -14 431 -14 q 243 3 292 -14 l 180 -149 q 172 -155 178 -155 l 121 -155 q 114 -151 117 -155 q 113 -142 111 -147 l 185 31 q 71 154 113 75 q 29 328 29 233 q 70 500 29 422 q 183 625 111 578 q 343 671 255 671 q 444 654 395 671 l 507 806 q 515 811 509 811 l 565 811 q 573 807 570 811 q 574 799 576 804 l 502 626 m 210 92 l 427 614 q 312 650 372 656 q 209 597 253 645 q 145 472 165 549 q 133 308 125 396 q 210 92 145 179 m 374 7 q 477 60 433 12 q 542 184 522 108 q 553 349 562 260 q 476 564 541 477 l 260 42 q 374 7 314 1 z "},"ù":{"ha":654,"x_min":16,"x_max":638,"o":"m 627 88 q 635 87 631 90 q 638 80 638 84 q 635 74 638 77 q 529 9 554 24 q 492 1 507 -4 q 471 23 477 7 q 464 62 464 39 l 464 247 q 411 125 446 183 q 325 26 376 66 q 223 -14 275 -14 q 122 27 157 -14 q 87 144 87 68 l 87 422 q 80 562 87 539 q 46 579 72 589 q 26 568 38 576 q 19 570 22 567 q 16 576 16 572 q 18 583 16 581 q 124 647 99 632 q 161 655 146 661 q 183 634 176 650 q 190 594 190 618 l 190 144 q 257 24 190 24 q 335 60 296 24 q 402 148 374 97 q 447 252 429 199 q 464 338 464 304 l 464 422 q 457 562 464 539 q 423 579 449 589 q 404 568 415 576 q 396 570 399 567 q 392 576 392 572 q 395 583 392 580 q 501 647 476 632 q 538 655 524 661 q 560 634 553 650 q 567 594 567 618 l 567 235 q 574 94 567 117 q 608 77 582 67 q 627 88 616 81 m 351 717 l 330 717 l 196 892 l 285 892 l 351 717 z "},"ú":{"ha":654,"x_min":16,"x_max":638,"o":"m 627 88 q 635 87 631 90 q 638 80 638 84 q 635 74 638 77 q 529 9 554 24 q 492 1 507 -4 q 471 23 477 7 q 464 62 464 39 l 464 247 q 411 125 446 183 q 325 26 376 66 q 223 -14 275 -14 q 122 27 157 -14 q 87 144 87 68 l 87 422 q 80 562 87 539 q 46 579 72 589 q 26 568 38 576 q 19 570 22 567 q 16 576 16 572 q 18 583 16 581 q 124 647 99 632 q 161 655 146 661 q 183 634 176 650 q 190 594 190 618 l 190 144 q 257 24 190 24 q 335 60 296 24 q 402 148 374 97 q 447 252 429 199 q 464 338 464 304 l 464 422 q 457 562 464 539 q 423 579 449 589 q 404 568 415 576 q 396 570 399 567 q 392 576 392 572 q 395 583 392 580 q 501 647 476 632 q 538 655 524 661 q 560 634 553 650 q 567 594 567 618 l 567 235 q 574 94 567 117 q 608 77 582 67 q 627 88 616 81 m 467 892 l 334 717 l 313 717 l 378 892 l 467 892 z "},"û":{"ha":654,"x_min":16,"x_max":638,"o":"m 627 88 q 635 87 631 90 q 638 80 638 84 q 635 74 638 77 q 529 9 554 24 q 492 1 507 -4 q 471 23 477 7 q 464 62 464 39 l 464 247 q 411 125 446 183 q 325 26 376 66 q 223 -14 275 -14 q 122 27 157 -14 q 87 144 87 68 l 87 422 q 80 562 87 539 q 46 579 72 589 q 26 568 38 576 q 19 570 22 567 q 16 576 16 572 q 18 583 16 581 q 124 647 99 632 q 161 655 146 661 q 183 634 176 650 q 190 594 190 618 l 190 144 q 257 24 190 24 q 335 60 296 24 q 402 148 374 97 q 447 252 429 199 q 464 338 464 304 l 464 422 q 457 562 464 539 q 423 579 449 589 q 404 568 415 576 q 396 570 399 567 q 392 576 392 572 q 395 583 392 580 q 501 647 476 632 q 538 655 524 661 q 560 634 553 650 q 567 594 567 618 l 567 235 q 574 94 567 117 q 608 77 582 67 q 627 88 616 81 m 327 806 l 259 717 l 239 717 l 304 892 l 349 892 l 415 717 l 394 717 l 327 806 z "},"ü":{"ha":654,"x_min":16,"x_max":638,"o":"m 627 88 q 635 87 631 90 q 638 80 638 84 q 635 74 638 77 q 529 9 554 24 q 492 1 507 -4 q 471 23 477 7 q 464 62 464 39 l 464 247 q 411 125 446 183 q 325 26 376 66 q 223 -14 275 -14 q 122 27 157 -14 q 87 144 87 68 l 87 422 q 80 562 87 539 q 46 579 72 589 q 26 568 38 576 q 19 570 22 567 q 16 576 16 572 q 18 583 16 581 q 124 647 99 632 q 161 655 146 661 q 183 634 176 650 q 190 594 190 618 l 190 144 q 257 24 190 24 q 335 60 296 24 q 402 148 374 97 q 447 252 429 199 q 464 338 464 304 l 464 422 q 457 562 464 539 q 423 579 449 589 q 404 568 415 576 q 396 570 399 567 q 392 576 392 572 q 395 583 392 580 q 501 647 476 632 q 538 655 524 661 q 560 634 553 650 q 567 594 567 618 l 567 235 q 574 94 567 117 q 608 77 582 67 q 627 88 616 81 m 287 767 q 279 759 287 767 q 249 751 271 751 q 211 767 227 751 q 195 805 195 783 q 211 843 195 827 q 249 859 227 859 q 287 843 271 859 q 303 805 303 827 q 287 767 303 783 m 443 767 q 435 759 443 767 q 405 751 427 751 q 367 767 382 751 q 351 805 351 783 q 367 843 351 827 q 405 859 382 859 q 443 843 427 859 q 459 805 459 827 q 443 767 459 783 z "},"ý":{"ha":661,"x_min":-54,"x_max":666,"o":"m 657 656 q 665 648 666 656 q 656 640 663 640 q 582 598 620 640 q 511 473 545 557 l 342 0 q 217 -225 290 -143 q 62 -307 144 -307 q -20 -278 14 -307 q -54 -199 -54 -249 q -49 -159 -54 -178 q -30 -125 -43 -141 q -6 -99 -17 -110 q 28 -74 5 -87 q 64 -55 52 -61 q 105 -35 77 -48 q 144 -16 133 -22 q 192 9 172 -3 q 231 40 212 22 q 258 77 250 58 q 267 124 267 97 q 255 184 267 151 l 166 423 q 92 565 128 529 q 12 574 56 602 q 4 575 7 572 q 0 582 0 578 q 3 588 0 585 q 100 647 75 632 q 169 629 133 667 q 235 509 204 591 l 370 131 l 484 450 q 500 533 500 498 q 490 588 501 568 q 453 621 478 608 q 399 636 428 633 q 331 640 371 640 q 323 647 324 640 q 325 654 322 651 q 331 656 327 656 l 657 656 m 102 -229 q 231 -165 174 -229 q 323 0 288 -100 l 283 109 q 150 -28 273 29 q 58 -85 90 -56 q 26 -157 26 -114 q 48 -209 26 -189 q 102 -229 71 -229 m 477 892 l 344 717 l 323 717 l 389 892 l 477 892 z "},"þ":{"ha":652,"x_min":-16,"x_max":619,"o":"m 414 671 q 566 597 512 671 q 619 400 619 524 q 531 102 619 218 q 304 -14 444 -14 q 159 59 214 -14 l 159 -212 q 181 -274 159 -254 q 224 -293 202 -293 q 231 -301 231 -293 q 222 -309 231 -309 l -7 -309 q -16 -301 -16 -309 q -8 -293 -16 -293 q 35 -274 14 -293 q 56 -212 56 -254 l 56 731 q 50 871 56 848 q 16 888 41 899 q -4 878 7 885 q -12 879 -8 876 q -16 886 -16 882 q -13 892 -16 889 q 94 957 68 942 q 131 965 116 970 q 152 944 145 960 q 159 904 159 928 l 159 422 q 256 598 188 525 q 414 671 324 671 m 281 11 q 365 36 323 11 q 440 109 406 62 q 495 232 474 156 q 517 400 517 308 q 482 584 517 522 q 384 646 447 646 q 277 598 330 646 q 192 474 224 551 q 159 319 159 398 l 159 83 q 281 11 206 11 z "},"ÿ":{"ha":661,"x_min":-54,"x_max":666,"o":"m 657 656 q 665 648 666 656 q 656 640 663 640 q 582 598 620 640 q 511 473 545 557 l 342 0 q 217 -225 290 -143 q 62 -307 144 -307 q -20 -278 14 -307 q -54 -199 -54 -249 q -49 -159 -54 -178 q -30 -125 -43 -141 q -6 -99 -17 -110 q 28 -74 5 -87 q 64 -55 52 -61 q 105 -35 77 -48 q 144 -16 133 -22 q 192 9 172 -3 q 231 40 212 22 q 258 77 250 58 q 267 124 267 97 q 255 184 267 151 l 166 423 q 92 565 128 529 q 12 574 56 602 q 4 575 7 572 q 0 582 0 578 q 3 588 0 585 q 100 647 75 632 q 169 629 133 667 q 235 509 204 591 l 370 131 l 484 450 q 500 533 500 498 q 490 588 501 568 q 453 621 478 608 q 399 636 428 633 q 331 640 371 640 q 323 647 324 640 q 325 654 322 651 q 331 656 327 656 l 657 656 m 102 -229 q 231 -165 174 -229 q 323 0 288 -100 l 283 109 q 150 -28 273 29 q 58 -85 90 -56 q 26 -157 26 -114 q 48 -209 26 -189 q 102 -229 71 -229 m 284 767 q 276 759 284 767 q 245 751 268 751 q 207 767 223 751 q 191 805 191 783 q 207 843 191 827 q 245 859 223 859 q 284 843 268 859 q 300 805 300 827 q 284 767 300 783 m 439 767 q 431 759 439 767 q 401 751 423 751 q 362 767 378 751 q 347 805 347 783 q 362 843 347 827 q 401 859 378 859 q 439 843 423 859 q 455 805 455 827 q 439 767 455 783 z "},"Œ":{"ha":1335,"x_min":28,"x_max":1306,"o":"m 1299 208 q 1306 200 1306 207 l 1306 20 q 1300 6 1306 12 q 1286 0 1295 0 l 711 0 q 705 3 708 0 q 703 9 703 5 q 711 16 705 16 q 754 36 734 16 q 774 96 774 55 l 774 148 q 636 28 718 71 q 453 -14 554 -14 q 228 53 326 -14 q 79 233 130 120 q 28 483 28 345 q 79 733 28 621 q 228 913 130 846 q 453 980 326 980 q 636 938 555 980 q 774 819 718 895 l 774 869 q 753 930 774 911 q 710 949 732 949 q 704 955 705 949 q 706 964 702 960 q 711 966 708 966 l 1266 966 q 1280 960 1274 966 q 1286 946 1286 954 l 1286 766 q 1279 758 1286 759 q 1270 765 1270 756 q 1063 947 1270 947 l 878 947 l 878 372 q 975 520 907 456 q 1044 577 1004 549 q 1107 621 1084 606 q 1147 664 1130 637 q 1164 728 1164 692 q 1172 735 1165 735 q 1180 727 1180 735 l 1180 352 q 1173 344 1180 345 q 1164 351 1164 342 q 1151 485 1164 435 q 1113 550 1137 535 q 1057 554 1089 566 q 986 506 1025 543 q 878 254 878 401 l 878 19 l 1083 19 q 1177 33 1137 19 q 1238 65 1217 46 q 1272 111 1259 83 q 1287 158 1284 138 q 1290 201 1290 178 q 1293 207 1290 204 q 1299 208 1296 209 m 774 395 l 774 471 q 772 514 773 500 q 732 697 762 612 q 656 842 702 781 q 545 935 610 903 q 407 959 481 966 q 276 908 333 951 q 184 797 218 865 q 137 640 151 728 q 132 452 123 551 q 193 216 145 320 q 321 55 241 113 q 498 7 401 -2 q 643 69 581 16 q 737 206 705 122 q 774 395 769 290 z "},"œ":{"ha":1118,"x_min":29,"x_max":1104,"o":"m 1099 157 q 1100 144 1104 153 q 1001 32 1067 79 q 845 -14 935 -14 q 701 24 764 -14 q 601 130 638 62 q 491 24 558 63 q 343 -14 423 -14 q 183 32 255 -14 q 70 156 111 78 q 29 328 29 235 q 70 500 29 422 q 183 625 111 578 q 343 671 255 671 q 496 630 427 671 q 607 517 565 589 q 722 631 650 591 q 868 671 793 671 q 1013 632 966 671 q 1061 538 1061 593 q 1043 469 1061 500 q 989 414 1025 438 q 908 371 953 389 q 798 333 863 352 q 700 289 730 313 q 668 227 669 264 q 753 80 686 135 q 899 24 820 24 q 1006 60 954 24 q 1087 152 1059 96 q 1099 157 1091 160 m 263 40 q 289 21 263 40 q 374 7 315 1 q 477 60 433 12 q 542 184 522 108 q 553 349 562 260 q 511 508 545 437 q 424 617 476 579 q 312 650 371 656 q 209 597 253 645 q 145 472 165 549 q 133 308 125 396 q 176 149 141 220 q 263 40 210 78 m 659 328 q 663 260 659 288 q 795 347 680 314 q 929 415 885 373 q 974 526 974 457 q 964 585 974 557 q 926 633 954 612 q 857 654 898 654 q 714 564 770 654 q 659 328 659 473 z "},"Š":{"ha":712,"x_min":43,"x_max":685,"o":"m 132 812 q 151 739 132 772 q 202 682 170 706 q 275 636 234 658 q 363 593 317 614 q 455 552 409 573 q 542 504 500 531 q 615 446 583 477 q 666 371 647 415 q 685 275 685 327 q 640 125 685 192 q 523 22 595 58 q 366 -14 450 -14 q 272 -6 317 -14 q 189 17 228 1 q 124 47 149 33 q 63 81 98 60 q 47 110 47 91 q 47 253 47 157 q 47 382 47 349 q 51 389 47 387 q 57 389 54 391 q 60 382 60 387 q 145 111 60 218 q 366 5 230 5 q 522 62 462 5 q 582 214 582 120 q 564 311 582 267 q 514 385 545 355 q 442 439 483 415 q 357 483 401 464 q 268 520 312 502 q 182 558 223 538 q 111 604 142 579 q 61 663 79 628 q 43 742 43 699 q 82 866 43 810 q 180 951 121 922 q 305 980 240 980 q 474 949 389 980 q 602 884 559 919 q 618 849 618 872 q 617 737 618 802 q 617 634 617 672 q 614 627 617 629 q 607 627 610 625 q 604 633 604 629 q 583 757 604 698 q 524 861 562 816 q 429 934 486 907 q 305 961 372 961 q 178 921 224 961 q 132 812 132 881 m 325 1026 l 280 1026 l 214 1202 l 235 1202 l 302 1114 l 370 1202 l 391 1202 l 325 1026 z "},"š":{"ha":557,"x_min":41,"x_max":524,"o":"m 115 532 q 138 466 115 494 q 197 422 161 438 q 276 393 233 406 q 363 366 320 380 q 443 331 407 351 q 502 276 479 311 q 524 193 524 241 q 456 47 524 109 q 279 -14 388 -14 q 153 5 216 -14 q 52 56 91 24 q 42 76 42 64 q 42 138 42 94 q 41 241 41 183 q 50 250 41 250 q 58 241 58 250 q 66 174 58 208 q 92 110 74 141 q 135 55 109 79 q 198 17 160 31 q 281 3 236 3 q 360 15 326 3 q 413 47 394 27 q 443 91 433 68 q 452 138 452 114 q 430 218 452 185 q 371 270 407 252 q 291 302 334 288 q 203 330 247 316 q 123 362 159 344 q 64 414 87 381 q 41 494 41 448 q 62 573 41 538 q 116 628 83 608 q 186 660 149 649 q 259 671 223 671 q 380 652 321 671 q 479 601 439 633 q 488 581 488 593 l 488 416 q 484 408 488 410 q 476 408 480 406 q 473 415 473 410 q 461 499 473 459 q 426 576 450 540 q 360 633 402 612 q 261 654 317 654 q 157 618 198 654 q 115 532 115 583 m 290 717 l 245 717 l 180 892 l 201 892 l 268 804 l 336 892 l 356 892 l 290 717 z "},"Ÿ":{"ha":734,"x_min":-14,"x_max":751,"o":"m 743 966 q 751 958 751 966 q 744 950 751 950 q 672 924 711 950 q 614 845 634 899 l 404 286 l 404 96 q 425 35 404 54 q 469 16 446 16 q 475 8 475 16 q 468 0 475 0 l 238 0 q 230 8 230 0 q 237 16 230 16 q 280 35 259 16 q 301 96 301 54 l 301 287 l 81 873 q 40 933 65 916 q -7 950 15 950 q -14 958 -14 950 q -6 966 -14 966 l 224 966 q 232 958 232 966 q 225 950 232 950 q 187 930 203 950 q 184 871 170 911 l 395 315 l 594 843 q 600 894 604 873 q 580 927 596 915 q 547 945 564 940 q 513 950 530 950 q 505 958 505 950 q 513 966 505 966 l 743 966 m 353 1076 q 345 1068 353 1076 q 315 1060 337 1060 q 276 1076 292 1060 q 260 1114 260 1092 q 276 1153 260 1137 q 315 1168 292 1168 q 353 1153 337 1168 q 369 1114 369 1137 q 353 1076 369 1092 m 508 1076 q 500 1068 508 1076 q 470 1060 492 1060 q 432 1076 448 1060 q 416 1114 416 1092 q 432 1153 416 1137 q 470 1168 448 1168 q 508 1153 492 1168 q 524 1114 524 1137 q 508 1076 524 1092 z "},"Ž":{"ha":608,"x_min":12,"x_max":593,"o":"m 587 208 q 593 200 593 207 l 593 12 q 582 0 593 0 l 20 0 q 14 4 16 0 q 14 12 12 7 l 464 947 l 256 947 q 179 934 214 947 q 120 901 143 921 q 80 856 97 880 q 57 808 64 831 q 50 765 50 785 q 41 758 50 756 q 34 766 34 759 l 34 954 q 45 966 34 966 l 559 966 q 568 961 565 966 q 569 951 572 956 l 120 19 l 371 19 q 449 32 413 19 q 507 65 484 45 q 547 110 530 85 q 571 158 564 135 q 578 201 578 181 q 587 208 578 210 m 342 1026 l 297 1026 l 231 1202 l 252 1202 l 319 1114 l 387 1202 l 408 1202 l 342 1026 z "},"ž":{"ha":579,"x_min":18,"x_max":552,"o":"m 552 200 q 551 158 551 198 q 552 68 551 119 q 552 15 552 18 q 548 4 552 9 q 538 0 544 0 l 29 0 q 21 5 24 0 q 21 15 18 9 l 440 637 l 264 637 q 172 622 212 637 q 109 581 132 607 q 73 523 85 555 q 61 456 61 491 q 52 448 61 447 q 45 456 45 450 l 45 645 q 49 653 45 650 q 57 656 52 656 l 526 656 q 536 652 532 656 q 541 642 541 648 q 538 633 541 636 l 124 19 l 334 19 q 486 70 436 19 q 536 201 536 120 q 545 208 536 210 q 552 200 552 207 m 309 717 l 263 717 l 197 892 l 218 892 l 286 804 l 353 892 l 374 892 l 309 717 z "},"":{"ha":572,"x_min":14,"x_max":557,"o":"m 253 16 q 260 8 260 16 q 252 0 260 0 l 22 0 q 14 8 14 0 q 21 16 14 16 q 64 35 43 16 q 85 96 85 54 l 85 593 q 79 734 85 711 q 45 751 71 761 q 25 740 37 747 q 17 741 21 739 q 14 748 14 744 q 16 754 14 751 q 123 819 98 804 q 160 827 145 832 q 181 805 174 821 q 189 766 189 789 l 189 96 q 210 35 189 54 q 253 16 231 16 m 551 16 q 557 8 557 16 q 549 0 557 0 l 319 0 q 312 8 312 0 q 319 16 312 16 q 362 35 341 16 q 383 96 383 54 l 383 731 q 376 871 383 848 q 342 888 368 899 q 323 878 334 885 q 315 879 319 876 q 312 886 312 882 q 314 892 312 890 q 420 957 395 942 q 457 965 443 970 q 479 944 472 960 q 486 904 486 928 l 486 96 q 507 35 486 54 q 551 16 528 16 z "},"":{"ha":908,"x_min":12,"x_max":894,"o":"m 609 363 q 572 350 589 358 q 544 335 555 342 q 519 314 532 328 q 499 293 506 300 q 481 266 493 286 q 466 239 470 246 q 450 206 463 231 q 434 172 438 180 q 407 119 418 140 q 375 71 395 98 q 334 26 355 43 q 283 -3 313 9 q 220 -15 254 -15 q 119 26 155 -15 q 84 144 84 67 l 84 637 l 22 637 q 12 646 12 637 q 22 656 12 656 l 84 656 q 81 714 83 694 q 73 745 79 734 q 55 754 66 755 q 24 740 43 752 q 16 741 20 739 q 12 748 12 744 q 15 754 12 751 q 121 819 96 804 q 158 827 144 832 q 180 805 173 821 q 187 766 187 789 l 187 656 l 364 656 q 374 646 374 656 q 364 637 374 637 l 187 637 l 187 144 q 209 51 187 83 q 265 19 231 19 q 394 122 336 19 q 347 314 347 207 q 365 442 347 382 q 414 542 383 501 q 485 613 445 583 q 570 656 526 642 q 659 670 614 670 q 803 630 755 670 q 852 540 852 590 q 847 499 852 517 q 834 468 842 481 q 809 442 826 454 q 776 420 792 429 q 731 401 760 412 q 676 383 701 391 q 609 363 651 376 m 647 654 q 505 563 560 654 q 450 328 450 472 q 456 244 450 287 q 516 329 486 300 q 606 378 546 357 q 728 446 691 408 q 765 541 765 484 q 736 620 765 587 q 647 654 707 654 m 889 156 q 890 144 894 153 q 791 32 857 79 q 635 -15 726 -15 q 418 89 500 -15 q 457 161 433 113 q 463 173 459 165 q 469 185 467 181 q 550 64 492 107 q 684 20 608 20 q 798 57 747 20 q 879 151 849 93 q 889 156 883 159 z "},"":{"ha":962,"x_min":12,"x_max":946,"o":"m 935 88 q 943 87 939 90 q 946 80 946 84 q 943 74 946 77 q 837 9 862 24 q 800 1 814 -4 q 779 23 785 7 q 772 62 772 39 l 772 512 q 754 600 772 566 q 705 633 736 633 q 497 435 593 633 q 495 430 496 433 q 492 424 493 426 l 492 423 q 487 411 490 419 q 481 399 483 404 q 480 399 481 399 q 480 398 480 399 q 477 392 479 396 q 475 386 475 388 q 474 385 475 385 q 474 385 474 385 l 464 360 q 464 359 464 359 l 463 358 q 461 352 463 356 q 458 346 459 348 l 458 345 q 458 344 458 345 q 455 337 457 342 q 453 331 454 333 q 449 322 452 328 q 446 313 447 316 l 446 313 l 446 312 q 442 303 445 309 q 439 295 439 298 l 439 294 q 417 240 432 275 q 373 141 394 183 q 325 62 351 100 q 270 5 299 24 q 210 -15 241 -15 q 84 144 84 -15 l 84 637 l 22 637 q 12 646 12 637 q 22 656 12 656 l 84 656 q 81 714 83 694 q 73 745 79 734 q 55 754 66 755 q 24 740 43 752 q 16 741 20 739 q 12 748 12 744 q 15 754 12 751 q 121 819 96 804 q 158 827 144 832 q 180 805 173 821 q 187 766 187 789 l 187 656 l 301 656 q 311 646 311 656 q 301 637 311 637 l 187 637 l 187 144 q 200 51 187 79 q 244 23 212 23 q 395 224 307 23 l 395 731 q 388 871 395 848 q 354 888 380 899 q 334 878 346 885 q 327 879 330 876 q 323 886 323 882 q 326 892 323 889 q 432 957 407 942 q 469 965 454 970 q 491 944 484 960 q 498 904 498 928 q 497 717 498 859 q 497 506 497 575 l 497 469 q 607 622 549 572 q 739 671 665 671 q 838 626 802 671 q 874 512 874 581 l 874 235 q 882 94 874 117 q 916 78 890 66 q 935 88 924 81 m 562 16 q 569 8 569 16 q 561 0 569 0 l 331 0 q 323 8 323 0 q 330 16 323 16 q 374 35 353 16 q 395 96 395 54 l 395 127 q 477 322 427 189 q 497 373 496 370 l 497 245 l 498 245 l 498 96 q 519 35 498 54 q 562 16 540 16 z "},"":{"ha":656,"x_min":12,"x_max":653,"o":"m 637 81 q 645 85 640 85 q 651 82 649 85 q 650 73 653 78 q 596 10 629 35 q 526 -15 564 -15 q 425 26 460 -15 q 389 144 389 67 l 389 637 l 187 637 l 187 144 q 254 23 187 23 q 332 81 297 23 q 339 85 335 85 q 346 82 344 85 q 345 73 348 78 q 291 10 324 35 q 220 -15 258 -15 q 119 26 155 -15 q 84 144 84 67 l 84 593 l 84 637 l 22 637 q 12 646 12 637 q 22 656 12 656 l 84 656 q 81 714 83 694 q 73 745 79 734 q 55 754 66 755 q 24 740 43 752 q 16 741 20 739 q 12 748 12 744 q 15 754 12 751 q 121 819 96 804 q 158 827 144 832 q 180 805 173 821 q 187 766 187 789 l 187 656 l 389 656 l 389 731 q 382 871 389 848 q 349 888 374 899 q 329 878 340 885 q 321 879 325 876 q 318 886 318 882 q 320 892 318 890 q 427 957 402 942 q 464 965 450 970 q 486 944 479 960 q 492 904 492 928 l 492 656 l 566 656 q 576 646 576 656 q 566 637 576 637 l 492 637 l 492 144 q 559 23 492 23 q 637 81 602 23 z "},"":{"ha":1104,"x_min":0,"x_max":1091,"o":"m 1087 85 q 1084 74 1091 78 q 978 9 1003 24 q 941 1 956 -4 q 920 23 926 7 q 913 62 913 39 l 913 138 q 648 -14 812 -14 q 524 28 578 -14 q 470 133 470 71 q 494 210 470 176 q 558 268 519 245 q 644 312 597 292 q 738 352 691 332 q 824 392 785 371 q 888 444 863 414 q 912 512 912 475 q 877 605 912 572 q 784 638 841 638 q 699 621 743 638 q 613 571 656 604 q 531 482 570 538 q 468 354 493 426 q 345 9 463 339 q 332 0 342 0 q 319 9 323 0 l 166 422 q 92 565 128 528 q 11 573 56 601 q 3 575 7 572 q 0 582 0 578 q 3 588 0 585 q 100 647 75 632 q 168 629 132 667 q 235 508 204 591 l 370 131 q 381 163 370 133 q 413 253 391 193 q 451 360 434 313 q 523 503 479 441 q 616 601 566 565 q 716 654 665 636 q 818 671 767 671 q 959 628 902 671 q 1015 512 1015 584 l 1015 235 q 1023 94 1015 117 q 1057 78 1031 66 q 1076 88 1065 81 q 1087 85 1084 91 m 913 166 l 913 453 q 892 426 905 439 q 870 404 880 412 q 841 384 861 396 q 813 368 821 372 q 781 351 806 363 q 751 336 755 338 q 705 312 721 321 q 665 289 690 304 q 627 260 640 273 q 600 228 614 247 q 579 188 585 210 q 573 141 573 166 q 614 53 573 87 q 709 18 656 18 q 822 60 768 18 q 913 166 876 101 z "},"":{"ha":1428,"x_min":29,"x_max":1418,"o":"m 1407 88 q 1415 87 1411 90 q 1418 80 1418 84 q 1416 74 1418 76 q 1309 9 1334 24 q 1272 1 1286 -4 q 1251 23 1257 7 q 1244 62 1244 39 l 1244 512 q 1177 633 1244 633 q 1116 616 1145 632 q 1060 568 1088 600 q 1012 504 1033 536 q 962 422 991 472 q 930 366 952 404 q 930 365 930 365 l 929 363 q 928 360 928 362 q 926 357 927 358 q 923 353 925 356 q 921 348 922 349 q 920 346 921 347 q 919 345 920 345 l 913 334 q 912 334 913 334 l 911 332 q 908 327 910 330 q 905 321 906 323 l 905 320 q 900 311 903 317 q 895 302 897 305 l 894 302 l 894 301 q 889 292 892 298 q 883 283 885 286 q 882 283 882 283 q 877 274 881 279 q 871 265 873 269 q 871 264 871 264 q 871 264 871 264 q 865 255 869 261 q 860 247 862 250 l 860 246 q 786 146 823 189 q 701 65 749 103 q 592 6 652 26 q 463 -14 532 -14 q 276 25 359 -14 q 139 132 192 64 q 57 289 85 199 q 29 483 29 379 q 80 733 29 620 q 224 913 130 846 q 435 980 317 980 q 477 977 456 980 q 514 971 498 975 q 550 961 530 968 q 581 949 570 954 q 612 934 592 945 q 640 919 632 923 q 669 901 647 914 q 696 884 690 888 q 712 856 709 877 q 753 584 726 775 q 751 577 754 579 q 746 576 749 574 q 742 581 743 577 q 720 666 736 619 q 677 765 705 713 q 615 861 649 818 q 534 932 581 904 q 435 961 486 961 q 279 897 349 961 q 171 723 210 832 q 132 483 132 614 q 177 248 132 351 q 305 84 221 144 q 499 24 389 24 q 860 281 699 24 l 860 731 q 852 872 860 848 q 818 888 844 899 q 799 878 810 884 q 791 879 795 876 q 788 886 788 882 q 791 892 788 889 q 897 957 872 942 q 934 965 920 970 q 956 944 949 960 q 962 904 962 928 l 962 461 q 1014 542 990 509 q 1069 607 1038 576 q 1135 654 1100 637 q 1211 671 1171 670 q 1312 630 1276 671 q 1347 512 1347 589 l 1347 235 q 1354 94 1347 117 q 1388 77 1362 67 q 1407 88 1396 81 m 1027 16 q 1034 8 1034 16 q 1026 0 1034 0 l 796 0 q 788 8 788 0 q 795 16 788 16 q 839 35 818 16 q 860 96 860 54 l 860 199 q 927 307 884 233 q 962 369 939 328 l 962 96 q 983 35 962 54 q 1027 16 1004 16 z "},"":{"ha":847,"x_min":12,"x_max":828,"o":"m 730 671 q 800 641 772 671 q 828 589 828 611 l 828 416 q 824 409 828 411 q 817 409 821 407 q 812 414 812 410 q 783 553 812 498 q 693 608 754 608 l 693 608 q 665 603 678 608 q 638 588 651 599 q 615 567 625 578 q 592 536 604 555 q 572 502 581 517 q 552 461 564 487 q 532 418 540 436 q 511 371 524 401 q 490 323 498 341 q 445 225 464 264 q 397 136 426 185 q 342 57 368 86 q 283 6 316 27 q 216 -14 250 -14 q 84 136 84 -14 l 84 594 l 84 637 l 22 637 q 12 647 12 637 q 22 656 12 656 l 84 656 q 81 714 83 694 q 73 745 79 734 q 55 754 66 756 q 24 740 43 752 q 16 741 20 739 q 12 748 12 744 q 15 754 12 751 q 121 819 96 804 q 158 827 144 832 q 180 805 173 821 q 187 766 187 789 l 187 656 l 267 656 q 277 647 277 656 q 267 637 277 637 l 187 637 l 187 136 q 202 49 187 74 q 250 24 216 24 q 428 227 323 24 l 428 422 q 421 562 428 539 q 387 579 413 589 q 368 568 379 576 q 360 570 363 567 q 357 576 357 572 q 359 583 357 580 q 466 647 441 632 q 503 655 488 661 q 524 634 517 650 q 531 594 531 618 l 531 456 q 571 540 553 506 q 613 606 589 574 q 667 654 637 637 q 730 671 696 670 m 595 16 q 603 8 603 16 q 595 0 603 0 l 365 0 q 357 8 357 0 q 364 16 357 16 q 407 35 386 16 q 428 96 428 54 l 428 138 q 513 313 465 203 q 531 353 526 340 l 531 96 q 552 35 531 54 q 595 16 573 16 z "},"":{"ha":1206,"x_min":32,"x_max":1194,"o":"m 1190 85 q 1187 74 1194 78 q 1081 9 1106 24 q 1044 1 1059 -4 q 1023 23 1029 7 q 1016 62 1016 39 l 1016 138 q 766 -14 915 -14 q 653 28 699 -14 q 608 133 608 70 q 630 210 608 176 q 688 268 652 245 q 768 312 724 292 q 855 352 812 332 q 935 392 899 371 q 993 444 970 414 q 1015 512 1015 475 q 990 608 1015 574 q 901 642 965 642 q 831 632 863 642 q 773 600 799 622 q 726 551 747 578 q 685 483 705 524 q 649 400 665 441 q 614 299 633 358 q 567 178 592 231 q 505 80 541 126 q 419 10 469 35 q 309 -14 370 -14 q 106 78 180 -14 q 32 315 32 170 q 50 443 32 383 q 99 543 68 502 q 171 613 130 584 q 255 657 211 643 q 344 671 299 671 q 489 632 441 671 q 536 538 536 593 q 519 469 536 500 q 465 414 501 438 q 384 371 429 389 q 274 333 338 352 q 175 289 205 313 q 144 227 145 264 q 216 78 162 132 q 347 24 271 24 q 420 40 385 24 q 480 81 454 56 q 528 144 505 106 q 567 220 551 182 q 599 306 583 258 q 628 391 616 357 q 659 468 640 426 q 695 536 677 509 q 738 591 713 564 q 791 635 763 619 q 856 661 819 651 q 936 671 892 671 q 1066 628 1014 671 q 1119 512 1119 586 l 1119 235 q 1126 94 1119 117 q 1160 77 1134 67 q 1179 88 1168 81 q 1190 85 1187 91 m 135 328 q 139 260 135 293 q 271 347 156 314 q 406 415 361 373 q 450 526 450 457 q 440 585 450 557 q 401 633 429 612 q 332 654 374 654 q 190 564 245 654 q 135 328 135 473 m 1016 166 l 1016 453 q 965 396 998 422 q 901 353 933 370 q 833 316 868 337 q 772 274 798 295 q 728 219 745 254 q 711 141 711 185 q 743 59 711 87 q 828 31 776 31 q 930 67 879 31 q 1016 166 981 104 z "},"":{"ha":1196,"x_min":31,"x_max":1180,"o":"m 1169 88 q 1177 87 1173 90 q 1180 80 1180 84 q 1178 74 1180 76 q 1072 9 1097 24 q 1035 1 1049 -4 q 1013 23 1020 7 q 1006 62 1006 39 l 1006 512 q 939 633 1006 633 q 900 623 920 633 q 865 598 881 612 q 830 556 849 583 q 798 508 812 530 q 766 449 785 486 q 738 388 748 412 q 709 324 727 364 q 676 254 691 284 q 639 186 661 223 q 596 123 617 150 q 546 69 574 96 q 487 25 517 42 q 418 -3 456 7 q 336 -14 379 -14 q 118 79 205 -14 q 31 315 31 173 q 49 443 31 383 q 98 543 67 502 q 169 613 129 584 q 254 657 210 643 q 342 671 298 671 q 488 632 440 671 q 535 538 535 593 q 517 469 535 500 q 464 414 500 438 q 382 371 427 389 q 273 333 337 352 q 174 289 204 313 q 142 227 144 264 q 229 81 160 136 q 378 26 298 26 q 533 82 469 28 q 648 231 597 136 l 648 422 q 641 563 648 539 q 606 578 633 590 q 587 568 598 575 q 580 570 583 567 q 576 576 576 572 q 579 583 576 580 q 686 647 661 632 q 723 655 708 661 q 744 634 737 650 q 751 594 751 618 l 751 450 q 798 537 775 500 q 848 606 821 574 q 907 654 876 637 q 972 671 939 671 q 1074 630 1038 671 q 1109 512 1109 589 l 1109 235 q 1116 94 1109 117 q 1149 77 1124 67 q 1169 88 1158 81 m 134 328 q 137 260 134 288 q 269 347 154 314 q 404 415 359 373 q 448 526 448 457 q 438 585 448 557 q 400 633 428 612 q 331 654 372 654 q 189 564 244 654 q 134 328 134 473 m 815 16 q 823 8 823 16 q 814 0 823 0 l 585 0 q 576 8 576 0 q 584 16 576 16 q 627 35 606 16 q 648 96 648 54 l 648 151 q 732 313 686 209 q 751 354 742 332 l 751 96 q 772 35 751 54 q 815 16 793 16 z "},"":{"ha":1065,"x_min":31,"x_max":1047,"o":"m 949 671 q 1019 641 991 671 q 1047 589 1047 611 l 1047 416 q 1043 409 1047 411 q 1035 409 1039 407 q 1031 415 1031 411 q 1002 553 1031 498 q 912 608 973 608 l 912 608 q 864 594 886 608 q 822 552 842 581 q 786 494 802 524 q 751 420 770 465 q 737 387 747 410 q 722 352 727 364 q 722 351 722 351 l 721 351 q 720 349 720 351 q 719 347 719 347 q 717 342 718 345 q 715 337 715 339 q 715 336 715 336 l 714 335 q 711 330 713 333 q 709 324 709 326 q 676 254 691 284 q 639 186 661 223 q 596 123 617 150 q 546 69 574 96 q 487 25 517 42 q 418 -3 456 7 q 336 -14 379 -14 q 118 79 205 -14 q 31 315 31 173 q 49 443 31 383 q 98 543 67 502 q 169 613 129 584 q 254 657 210 643 q 342 671 298 671 q 488 632 440 671 q 535 538 535 593 q 517 469 535 500 q 464 414 500 438 q 382 371 427 389 q 273 333 337 352 q 174 289 204 313 q 142 227 144 264 q 229 81 160 136 q 378 26 298 26 q 533 82 469 28 q 648 231 597 136 l 648 422 q 641 563 648 539 q 606 578 633 590 q 587 568 598 575 q 580 570 583 567 q 576 576 576 572 q 579 583 576 580 q 686 647 661 632 q 723 655 708 661 q 744 634 737 650 q 751 594 751 618 l 751 458 q 791 541 772 508 q 833 606 809 574 q 886 654 857 638 q 949 671 915 671 m 134 328 q 137 260 134 288 q 269 347 154 314 q 404 415 359 373 q 448 526 448 457 q 438 585 448 557 q 400 633 428 612 q 331 654 372 654 q 189 564 244 654 q 134 328 134 473 m 815 16 q 823 8 823 16 q 814 0 823 0 l 585 0 q 576 8 576 0 q 584 16 576 16 q 627 35 606 16 q 648 96 648 54 l 648 151 q 732 313 686 209 q 751 355 745 342 l 751 96 q 772 35 751 54 q 815 16 793 16 z "}}}
